<svg xmlns="http://www.w3.org/2000/svg" width="420" height="510" viewBox="0 0 420 510" fill="none">
  <style>
  <![CDATA[
    .bg-main { fill: #050508; }
    .grid-lines { stroke: rgba(255, 255, 255, 0.015); stroke-width: 0.8; }
    .blueprint-border { stroke: rgba(255, 255, 255, 0.12); stroke-width: 1; }
    .sub-panel-bg { fill: #08080d; stroke: rgba(255, 255, 255, 0.03); stroke-width: 1; rx: 5px; }
    
    .tech-header {
      font-family: ui-monospace, SFMono-Regular, Menlo, Monaco, Consolas, monospace;
      font-size: 11px;
      font-weight: bold;
      fill: #cbd5e1;
      letter-spacing: 1px;
    }
    .tech-sub {
      font-family: ui-monospace, SFMono-Regular, Menlo, Monaco, Consolas, monospace;
      font-size: 8px;
      fill: #71717a;
      letter-spacing: 0.5px;
    }
    .legend-text {
      font-family: ui-monospace, SFMono-Regular, Menlo, Monaco, Consolas, monospace;
      font-size: 8px;
      fill: #52525b;
    }
    
    .timeline-title {
      font-family: ui-monospace, SFMono-Regular, Menlo, Monaco, Consolas, monospace;
      font-size: 9px;
      font-weight: bold;
      fill: #ffffff;
      letter-spacing: 0.5px;
    }
    .timeline-repo {
      font-family: ui-monospace, SFMono-Regular, Menlo, Monaco, Consolas, monospace;
      font-size: 9px;
      fill: #a1a1aa;
    }
    .timeline-count {
      font-family: ui-monospace, SFMono-Regular, Menlo, Monaco, Consolas, monospace;
      font-size: 9px;
      font-weight: bold;
      fill: #ffffff;
    }
    
    .commit-sha {
      font-family: ui-monospace, SFMono-Regular, Menlo, Monaco, Consolas, monospace;
      font-size: 8.5px;
      font-weight: bold;
      fill: #00f2fe;
    }
    .commit-msg {
      font-family: ui-monospace, SFMono-Regular, Menlo, Monaco, Consolas, monospace;
      font-size: 8.5px;
      fill: #cbd5e1;
    }

    .col-group { transition: filter 0.3s ease; }
    @keyframes pulse-wave {
      0%, 100% { filter: brightness(0.9); }
      20% { filter: brightness(1.9) drop-shadow(0 0 6px var(--pulse-color, #39d353)); }
    }

    .c-0 { animation: pulse-wave 6s infinite 0.0s; }
    .c-1 { animation: pulse-wave 6s infinite 0.3s; }
    .c-2 { animation: pulse-wave 6s infinite 0.6s; }
    .c-3 { animation: pulse-wave 6s infinite 0.9s; }
    .c-4 { animation: pulse-wave 6s infinite 1.2s; }
    .c-5 { animation: pulse-wave 6s infinite 1.5s; }
    .c-6 { animation: pulse-wave 6s infinite 1.8s; }
    .c-7 { animation: pulse-wave 6s infinite 2.1s; }
    .c-8 { animation: pulse-wave 6s infinite 2.4s; }
    .c-9 { animation: pulse-wave 6s infinite 2.7s; }
    .c-10 { animation: pulse-wave 6s infinite 3.0s; }
    .c-11 { animation: pulse-wave 6s infinite 3.3s; }
    .c-12 { animation: pulse-wave 6s infinite 3.6s; }
    .c-13 { animation: pulse-wave 6s infinite 3.9s; }
    .c-14 { animation: pulse-wave 6s infinite 4.2s; }
  ]]>
  </style>

  <rect width="420" height="510" class="bg-main" stroke="rgba(255, 255, 255, 0.08)" rx="6" />

  <!-- Background Grid -->
  <g>
    <line x1="70" y1="0" x2="70" y2="510" class="grid-lines" />
    <line x1="140" y1="0" x2="140" y2="510" class="grid-lines" />
    <line x1="210" y1="0" x2="210" y2="510" class="grid-lines" />
    <line x1="280" y1="0" x2="280" y2="510" class="grid-lines" />
    <line x1="350" y1="0" x2="350" y2="510" class="grid-lines" />
  </g>

  <!-- SECTION 1: 3D ISOMETRIC CONTRIBUTION GRID -->
  <text x="35" y="32" class="tech-header">CONTRIBUTION LANDSCAPE</text>
  <text x="35" y="44" class="tech-sub">311 CONTRIBUTIONS IN THE LAST YEAR</text>

  <!-- Grid Legend (Centered) -->
  <g transform="translate(130, 198)">
    <text x="0" y="8" class="legend-text">Less</text>
    <rect x="28" y="1" width="8" height="8" rx="1.5" fill="#161b22" />
    <rect x="40" y="1" width="8" height="8" rx="1.5" fill="#0e4429" />
    <rect x="52" y="1" width="8" height="8" rx="1.5" fill="#006d32" />
    <rect x="64" y="1" width="8" height="8" rx="1.5" fill="#26a641" />
    <rect x="76" y="1" width="8" height="8" rx="1.5" fill="#39d353" />
    <text x="90" y="8" class="legend-text">More</text>
  </g>
  <!-- Column 0 -->
  <g class="col-group c-0" style="--pulse-color: #39d353;">
    <polygon points="132.5,70.75 138.5,73.75 138.5,97.75 132.5,94.75" fill="#28943a" />
    <polygon points="138.5,73.75 144.5,70.75 144.5,94.75 138.5,97.75" fill="#1c6829" />
    <polygon points="138.5,67.75 144.5,70.75 138.5,73.75 132.5,70.75" fill="#39d353" />
  </g>
  <g class="col-group c-0" style="--pulse-color: #0e4429;">
    <polygon points="126.0,95.25 132.0,98.25 132.0,104.25 126.0,101.25" fill="#0a301d" />
    <polygon points="132.0,98.25 138.0,95.25 138.0,101.25 132.0,104.25" fill="#072214" />
    <polygon points="132.0,92.25 138.0,95.25 132.0,98.25 126.0,95.25" fill="#0e4429" />
  </g>
  <g class="col-group c-0" style="--pulse-color: #26a641;">
    <polygon points="119.5,89.75 125.5,92.75 125.5,110.75 119.5,107.75" fill="#1b752e" />
    <polygon points="125.5,92.75 131.5,89.75 131.5,107.75 125.5,110.75" fill="#135220" />
    <polygon points="125.5,86.75 131.5,89.75 125.5,92.75 119.5,89.75" fill="#26a641" />
  </g>
  <g class="col-group c-0" style="--pulse-color: #161b22;">
    <polygon points="113.0,112.25 119.0,115.25 119.0,117.25 113.0,114.25" fill="#0f131a" />
    <polygon points="119.0,115.25 125.0,112.25 125.0,114.25 119.0,117.25" fill="#0b0d12" />
    <polygon points="119.0,109.25 125.0,112.25 119.0,115.25 113.0,112.25" fill="#161b22" />
  </g>
  <g class="col-group c-0" style="--pulse-color: #161b22;">
    <polygon points="106.5,118.75 112.5,121.75 112.5,123.75 106.5,120.75" fill="#0f131a" />
    <polygon points="112.5,121.75 118.5,118.75 118.5,120.75 112.5,123.75" fill="#0b0d12" />
    <polygon points="112.5,115.75 118.5,118.75 112.5,121.75 106.5,118.75" fill="#161b22" />
  </g>
  <g class="col-group c-0" style="--pulse-color: #006d32;">
    <polygon points="100.0,115.25 106.0,118.25 106.0,130.25 100.0,127.25" fill="#004d23" />
    <polygon points="106.0,118.25 112.0,115.25 112.0,127.25 106.0,130.25" fill="#003317" />
    <polygon points="106.0,112.25 112.0,115.25 106.0,118.25 100.0,115.25" fill="#006d32" />
  </g>
  <g class="col-group c-0" style="--pulse-color: #26a641;">
    <polygon points="93.5,115.75 99.5,118.75 99.5,136.75 93.5,133.75" fill="#1b752e" />
    <polygon points="99.5,118.75 105.5,115.75 105.5,133.75 99.5,136.75" fill="#135220" />
    <polygon points="99.5,112.75 105.5,115.75 99.5,118.75 93.5,115.75" fill="#26a641" />
  </g>
  <!-- Column 1 -->
  <g class="col-group c-1" style="--pulse-color: #39d353;">
    <polygon points="145.5,74.0 151.5,77.0 151.5,101.0 145.5,98.0" fill="#28943a" />
    <polygon points="151.5,77.0 157.5,74.0 157.5,98.0 151.5,101.0" fill="#1c6829" />
    <polygon points="151.5,71.0 157.5,74.0 151.5,77.0 145.5,74.0" fill="#39d353" />
  </g>
  <g class="col-group c-1" style="--pulse-color: #26a641;">
    <polygon points="139.0,86.5 145.0,89.5 145.0,107.5 139.0,104.5" fill="#1b752e" />
    <polygon points="145.0,89.5 151.0,86.5 151.0,104.5 145.0,107.5" fill="#135220" />
    <polygon points="145.0,83.5 151.0,86.5 145.0,89.5 139.0,86.5" fill="#26a641" />
  </g>
  <g class="col-group c-1" style="--pulse-color: #0e4429;">
    <polygon points="132.5,105.0 138.5,108.0 138.5,114.0 132.5,111.0" fill="#0a301d" />
    <polygon points="138.5,108.0 144.5,105.0 144.5,111.0 138.5,114.0" fill="#072214" />
    <polygon points="138.5,102.0 144.5,105.0 138.5,108.0 132.5,105.0" fill="#0e4429" />
  </g>
  <g class="col-group c-1" style="--pulse-color: #0e4429;">
    <polygon points="126.0,111.5 132.0,114.5 132.0,120.5 126.0,117.5" fill="#0a301d" />
    <polygon points="132.0,114.5 138.0,111.5 138.0,117.5 132.0,120.5" fill="#072214" />
    <polygon points="132.0,108.5 138.0,111.5 132.0,114.5 126.0,111.5" fill="#0e4429" />
  </g>
  <g class="col-group c-1" style="--pulse-color: #006d32;">
    <polygon points="119.5,112.0 125.5,115.0 125.5,127.0 119.5,124.0" fill="#004d23" />
    <polygon points="125.5,115.0 131.5,112.0 131.5,124.0 125.5,127.0" fill="#003317" />
    <polygon points="125.5,109.0 131.5,112.0 125.5,115.0 119.5,112.0" fill="#006d32" />
  </g>
  <g class="col-group c-1" style="--pulse-color: #39d353;">
    <polygon points="113.0,106.5 119.0,109.5 119.0,133.5 113.0,130.5" fill="#28943a" />
    <polygon points="119.0,109.5 125.0,106.5 125.0,130.5 119.0,133.5" fill="#1c6829" />
    <polygon points="119.0,103.5 125.0,106.5 119.0,109.5 113.0,106.5" fill="#39d353" />
  </g>
  <g class="col-group c-1" style="--pulse-color: #161b22;">
    <polygon points="106.5,135.0 112.5,138.0 112.5,140.0 106.5,137.0" fill="#0f131a" />
    <polygon points="112.5,138.0 118.5,135.0 118.5,137.0 112.5,140.0" fill="#0b0d12" />
    <polygon points="112.5,132.0 118.5,135.0 112.5,138.0 106.5,135.0" fill="#161b22" />
  </g>
  <!-- Column 2 -->
  <g class="col-group c-2" style="--pulse-color: #006d32;">
    <polygon points="158.5,89.25 164.5,92.25 164.5,104.25 158.5,101.25" fill="#004d23" />
    <polygon points="164.5,92.25 170.5,89.25 170.5,101.25 164.5,104.25" fill="#003317" />
    <polygon points="164.5,86.25 170.5,89.25 164.5,92.25 158.5,89.25" fill="#006d32" />
  </g>
  <g class="col-group c-2" style="--pulse-color: #0e4429;">
    <polygon points="152.0,101.75 158.0,104.75 158.0,110.75 152.0,107.75" fill="#0a301d" />
    <polygon points="158.0,104.75 164.0,101.75 164.0,107.75 158.0,110.75" fill="#072214" />
    <polygon points="158.0,98.75 164.0,101.75 158.0,104.75 152.0,101.75" fill="#0e4429" />
  </g>
  <g class="col-group c-2" style="--pulse-color: #161b22;">
    <polygon points="145.5,112.25 151.5,115.25 151.5,117.25 145.5,114.25" fill="#0f131a" />
    <polygon points="151.5,115.25 157.5,112.25 157.5,114.25 151.5,117.25" fill="#0b0d12" />
    <polygon points="151.5,109.25 157.5,112.25 151.5,115.25 145.5,112.25" fill="#161b22" />
  </g>
  <g class="col-group c-2" style="--pulse-color: #161b22;">
    <polygon points="139.0,118.75 145.0,121.75 145.0,123.75 139.0,120.75" fill="#0f131a" />
    <polygon points="145.0,121.75 151.0,118.75 151.0,120.75 145.0,123.75" fill="#0b0d12" />
    <polygon points="145.0,115.75 151.0,118.75 145.0,121.75 139.0,118.75" fill="#161b22" />
  </g>
  <g class="col-group c-2" style="--pulse-color: #161b22;">
    <polygon points="132.5,125.25 138.5,128.25 138.5,130.25 132.5,127.25" fill="#0f131a" />
    <polygon points="138.5,128.25 144.5,125.25 144.5,127.25 138.5,130.25" fill="#0b0d12" />
    <polygon points="138.5,122.25 144.5,125.25 138.5,128.25 132.5,125.25" fill="#161b22" />
  </g>
  <g class="col-group c-2" style="--pulse-color: #161b22;">
    <polygon points="126.0,131.75 132.0,134.75 132.0,136.75 126.0,133.75" fill="#0f131a" />
    <polygon points="132.0,134.75 138.0,131.75 138.0,133.75 132.0,136.75" fill="#0b0d12" />
    <polygon points="132.0,128.75 138.0,131.75 132.0,134.75 126.0,131.75" fill="#161b22" />
  </g>
  <g class="col-group c-2" style="--pulse-color: #161b22;">
    <polygon points="119.5,138.25 125.5,141.25 125.5,143.25 119.5,140.25" fill="#0f131a" />
    <polygon points="125.5,141.25 131.5,138.25 131.5,140.25 125.5,143.25" fill="#0b0d12" />
    <polygon points="125.5,135.25 131.5,138.25 125.5,141.25 119.5,138.25" fill="#161b22" />
  </g>
  <!-- Column 3 -->
  <g class="col-group c-3" style="--pulse-color: #0e4429;">
    <polygon points="171.5,98.5 177.5,101.5 177.5,107.5 171.5,104.5" fill="#0a301d" />
    <polygon points="177.5,101.5 183.5,98.5 183.5,104.5 177.5,107.5" fill="#072214" />
    <polygon points="177.5,95.5 183.5,98.5 177.5,101.5 171.5,98.5" fill="#0e4429" />
  </g>
  <g class="col-group c-3" style="--pulse-color: #161b22;">
    <polygon points="165.0,109.0 171.0,112.0 171.0,114.0 165.0,111.0" fill="#0f131a" />
    <polygon points="171.0,112.0 177.0,109.0 177.0,111.0 171.0,114.0" fill="#0b0d12" />
    <polygon points="171.0,106.0 177.0,109.0 171.0,112.0 165.0,109.0" fill="#161b22" />
  </g>
  <g class="col-group c-3" style="--pulse-color: #161b22;">
    <polygon points="158.5,115.5 164.5,118.5 164.5,120.5 158.5,117.5" fill="#0f131a" />
    <polygon points="164.5,118.5 170.5,115.5 170.5,117.5 164.5,120.5" fill="#0b0d12" />
    <polygon points="164.5,112.5 170.5,115.5 164.5,118.5 158.5,115.5" fill="#161b22" />
  </g>
  <g class="col-group c-3" style="--pulse-color: #161b22;">
    <polygon points="152.0,122.0 158.0,125.0 158.0,127.0 152.0,124.0" fill="#0f131a" />
    <polygon points="158.0,125.0 164.0,122.0 164.0,124.0 158.0,127.0" fill="#0b0d12" />
    <polygon points="158.0,119.0 164.0,122.0 158.0,125.0 152.0,122.0" fill="#161b22" />
  </g>
  <g class="col-group c-3" style="--pulse-color: #161b22;">
    <polygon points="145.5,128.5 151.5,131.5 151.5,133.5 145.5,130.5" fill="#0f131a" />
    <polygon points="151.5,131.5 157.5,128.5 157.5,130.5 151.5,133.5" fill="#0b0d12" />
    <polygon points="151.5,125.5 157.5,128.5 151.5,131.5 145.5,128.5" fill="#161b22" />
  </g>
  <g class="col-group c-3" style="--pulse-color: #161b22;">
    <polygon points="139.0,135.0 145.0,138.0 145.0,140.0 139.0,137.0" fill="#0f131a" />
    <polygon points="145.0,138.0 151.0,135.0 151.0,137.0 145.0,140.0" fill="#0b0d12" />
    <polygon points="145.0,132.0 151.0,135.0 145.0,138.0 139.0,135.0" fill="#161b22" />
  </g>
  <g class="col-group c-3" style="--pulse-color: #161b22;">
    <polygon points="132.5,141.5 138.5,144.5 138.5,146.5 132.5,143.5" fill="#0f131a" />
    <polygon points="138.5,144.5 144.5,141.5 144.5,143.5 138.5,146.5" fill="#0b0d12" />
    <polygon points="138.5,138.5 144.5,141.5 138.5,144.5 132.5,141.5" fill="#161b22" />
  </g>
  <!-- Column 4 -->
  <g class="col-group c-4" style="--pulse-color: #161b22;">
    <polygon points="184.5,105.75 190.5,108.75 190.5,110.75 184.5,107.75" fill="#0f131a" />
    <polygon points="190.5,108.75 196.5,105.75 196.5,107.75 190.5,110.75" fill="#0b0d12" />
    <polygon points="190.5,102.75 196.5,105.75 190.5,108.75 184.5,105.75" fill="#161b22" />
  </g>
  <g class="col-group c-4" style="--pulse-color: #006d32;">
    <polygon points="178.0,102.25 184.0,105.25 184.0,117.25 178.0,114.25" fill="#004d23" />
    <polygon points="184.0,105.25 190.0,102.25 190.0,114.25 184.0,117.25" fill="#003317" />
    <polygon points="184.0,99.25 190.0,102.25 184.0,105.25 178.0,102.25" fill="#006d32" />
  </g>
  <g class="col-group c-4" style="--pulse-color: #006d32;">
    <polygon points="171.5,108.75 177.5,111.75 177.5,123.75 171.5,120.75" fill="#004d23" />
    <polygon points="177.5,111.75 183.5,108.75 183.5,120.75 177.5,123.75" fill="#003317" />
    <polygon points="177.5,105.75 183.5,108.75 177.5,111.75 171.5,108.75" fill="#006d32" />
  </g>
  <g class="col-group c-4" style="--pulse-color: #161b22;">
    <polygon points="165.0,125.25 171.0,128.25 171.0,130.25 165.0,127.25" fill="#0f131a" />
    <polygon points="171.0,128.25 177.0,125.25 177.0,127.25 171.0,130.25" fill="#0b0d12" />
    <polygon points="171.0,122.25 177.0,125.25 171.0,128.25 165.0,125.25" fill="#161b22" />
  </g>
  <g class="col-group c-4" style="--pulse-color: #006d32;">
    <polygon points="158.5,121.75 164.5,124.75 164.5,136.75 158.5,133.75" fill="#004d23" />
    <polygon points="164.5,124.75 170.5,121.75 170.5,133.75 164.5,136.75" fill="#003317" />
    <polygon points="164.5,118.75 170.5,121.75 164.5,124.75 158.5,121.75" fill="#006d32" />
  </g>
  <g class="col-group c-4" style="--pulse-color: #161b22;">
    <polygon points="152.0,138.25 158.0,141.25 158.0,143.25 152.0,140.25" fill="#0f131a" />
    <polygon points="158.0,141.25 164.0,138.25 164.0,140.25 158.0,143.25" fill="#0b0d12" />
    <polygon points="158.0,135.25 164.0,138.25 158.0,141.25 152.0,138.25" fill="#161b22" />
  </g>
  <g class="col-group c-4" style="--pulse-color: #161b22;">
    <polygon points="145.5,144.75 151.5,147.75 151.5,149.75 145.5,146.75" fill="#0f131a" />
    <polygon points="151.5,147.75 157.5,144.75 157.5,146.75 151.5,149.75" fill="#0b0d12" />
    <polygon points="151.5,141.75 157.5,144.75 151.5,147.75 145.5,144.75" fill="#161b22" />
  </g>
  <!-- Column 5 -->
  <g class="col-group c-5" style="--pulse-color: #26a641;">
    <polygon points="197.5,93.0 203.5,96.0 203.5,114.0 197.5,111.0" fill="#1b752e" />
    <polygon points="203.5,96.0 209.5,93.0 209.5,111.0 203.5,114.0" fill="#135220" />
    <polygon points="203.5,90.0 209.5,93.0 203.5,96.0 197.5,93.0" fill="#26a641" />
  </g>
  <g class="col-group c-5" style="--pulse-color: #0e4429;">
    <polygon points="191.0,111.5 197.0,114.5 197.0,120.5 191.0,117.5" fill="#0a301d" />
    <polygon points="197.0,114.5 203.0,111.5 203.0,117.5 197.0,120.5" fill="#072214" />
    <polygon points="197.0,108.5 203.0,111.5 197.0,114.5 191.0,111.5" fill="#0e4429" />
  </g>
  <g class="col-group c-5" style="--pulse-color: #161b22;">
    <polygon points="184.5,122.0 190.5,125.0 190.5,127.0 184.5,124.0" fill="#0f131a" />
    <polygon points="190.5,125.0 196.5,122.0 196.5,124.0 190.5,127.0" fill="#0b0d12" />
    <polygon points="190.5,119.0 196.5,122.0 190.5,125.0 184.5,122.0" fill="#161b22" />
  </g>
  <g class="col-group c-5" style="--pulse-color: #161b22;">
    <polygon points="178.0,128.5 184.0,131.5 184.0,133.5 178.0,130.5" fill="#0f131a" />
    <polygon points="184.0,131.5 190.0,128.5 190.0,130.5 184.0,133.5" fill="#0b0d12" />
    <polygon points="184.0,125.5 190.0,128.5 184.0,131.5 178.0,128.5" fill="#161b22" />
  </g>
  <g class="col-group c-5" style="--pulse-color: #161b22;">
    <polygon points="171.5,135.0 177.5,138.0 177.5,140.0 171.5,137.0" fill="#0f131a" />
    <polygon points="177.5,138.0 183.5,135.0 183.5,137.0 177.5,140.0" fill="#0b0d12" />
    <polygon points="177.5,132.0 183.5,135.0 177.5,138.0 171.5,135.0" fill="#161b22" />
  </g>
  <g class="col-group c-5" style="--pulse-color: #006d32;">
    <polygon points="165.0,131.5 171.0,134.5 171.0,146.5 165.0,143.5" fill="#004d23" />
    <polygon points="171.0,134.5 177.0,131.5 177.0,143.5 171.0,146.5" fill="#003317" />
    <polygon points="171.0,128.5 177.0,131.5 171.0,134.5 165.0,131.5" fill="#006d32" />
  </g>
  <g class="col-group c-5" style="--pulse-color: #0e4429;">
    <polygon points="158.5,144.0 164.5,147.0 164.5,153.0 158.5,150.0" fill="#0a301d" />
    <polygon points="164.5,147.0 170.5,144.0 170.5,150.0 164.5,153.0" fill="#072214" />
    <polygon points="164.5,141.0 170.5,144.0 164.5,147.0 158.5,144.0" fill="#0e4429" />
  </g>
  <!-- Column 6 -->
  <g class="col-group c-6" style="--pulse-color: #006d32;">
    <polygon points="210.5,102.25 216.5,105.25 216.5,117.25 210.5,114.25" fill="#004d23" />
    <polygon points="216.5,105.25 222.5,102.25 222.5,114.25 216.5,117.25" fill="#003317" />
    <polygon points="216.5,99.25 222.5,102.25 216.5,105.25 210.5,102.25" fill="#006d32" />
  </g>
  <g class="col-group c-6" style="--pulse-color: #161b22;">
    <polygon points="204.0,118.75 210.0,121.75 210.0,123.75 204.0,120.75" fill="#0f131a" />
    <polygon points="210.0,121.75 216.0,118.75 216.0,120.75 210.0,123.75" fill="#0b0d12" />
    <polygon points="210.0,115.75 216.0,118.75 210.0,121.75 204.0,118.75" fill="#161b22" />
  </g>
  <g class="col-group c-6" style="--pulse-color: #161b22;">
    <polygon points="197.5,125.25 203.5,128.25 203.5,130.25 197.5,127.25" fill="#0f131a" />
    <polygon points="203.5,128.25 209.5,125.25 209.5,127.25 203.5,130.25" fill="#0b0d12" />
    <polygon points="203.5,122.25 209.5,125.25 203.5,128.25 197.5,125.25" fill="#161b22" />
  </g>
  <g class="col-group c-6" style="--pulse-color: #161b22;">
    <polygon points="191.0,131.75 197.0,134.75 197.0,136.75 191.0,133.75" fill="#0f131a" />
    <polygon points="197.0,134.75 203.0,131.75 203.0,133.75 197.0,136.75" fill="#0b0d12" />
    <polygon points="197.0,128.75 203.0,131.75 197.0,134.75 191.0,131.75" fill="#161b22" />
  </g>
  <g class="col-group c-6" style="--pulse-color: #161b22;">
    <polygon points="184.5,138.25 190.5,141.25 190.5,143.25 184.5,140.25" fill="#0f131a" />
    <polygon points="190.5,141.25 196.5,138.25 196.5,140.25 190.5,143.25" fill="#0b0d12" />
    <polygon points="190.5,135.25 196.5,138.25 190.5,141.25 184.5,138.25" fill="#161b22" />
  </g>
  <g class="col-group c-6" style="--pulse-color: #161b22;">
    <polygon points="178.0,144.75 184.0,147.75 184.0,149.75 178.0,146.75" fill="#0f131a" />
    <polygon points="184.0,147.75 190.0,144.75 190.0,146.75 184.0,149.75" fill="#0b0d12" />
    <polygon points="184.0,141.75 190.0,144.75 184.0,147.75 178.0,144.75" fill="#161b22" />
  </g>
  <g class="col-group c-6" style="--pulse-color: #161b22;">
    <polygon points="171.5,151.25 177.5,154.25 177.5,156.25 171.5,153.25" fill="#0f131a" />
    <polygon points="177.5,154.25 183.5,151.25 183.5,153.25 177.5,156.25" fill="#0b0d12" />
    <polygon points="177.5,148.25 183.5,151.25 177.5,154.25 171.5,151.25" fill="#161b22" />
  </g>
  <!-- Column 7 -->
  <g class="col-group c-7" style="--pulse-color: #161b22;">
    <polygon points="223.5,115.5 229.5,118.5 229.5,120.5 223.5,117.5" fill="#0f131a" />
    <polygon points="229.5,118.5 235.5,115.5 235.5,117.5 229.5,120.5" fill="#0b0d12" />
    <polygon points="229.5,112.5 235.5,115.5 229.5,118.5 223.5,115.5" fill="#161b22" />
  </g>
  <g class="col-group c-7" style="--pulse-color: #161b22;">
    <polygon points="217.0,122.0 223.0,125.0 223.0,127.0 217.0,124.0" fill="#0f131a" />
    <polygon points="223.0,125.0 229.0,122.0 229.0,124.0 223.0,127.0" fill="#0b0d12" />
    <polygon points="223.0,119.0 229.0,122.0 223.0,125.0 217.0,122.0" fill="#161b22" />
  </g>
  <g class="col-group c-7" style="--pulse-color: #161b22;">
    <polygon points="210.5,128.5 216.5,131.5 216.5,133.5 210.5,130.5" fill="#0f131a" />
    <polygon points="216.5,131.5 222.5,128.5 222.5,130.5 216.5,133.5" fill="#0b0d12" />
    <polygon points="216.5,125.5 222.5,128.5 216.5,131.5 210.5,128.5" fill="#161b22" />
  </g>
  <g class="col-group c-7" style="--pulse-color: #161b22;">
    <polygon points="204.0,135.0 210.0,138.0 210.0,140.0 204.0,137.0" fill="#0f131a" />
    <polygon points="210.0,138.0 216.0,135.0 216.0,137.0 210.0,140.0" fill="#0b0d12" />
    <polygon points="210.0,132.0 216.0,135.0 210.0,138.0 204.0,135.0" fill="#161b22" />
  </g>
  <g class="col-group c-7" style="--pulse-color: #161b22;">
    <polygon points="197.5,141.5 203.5,144.5 203.5,146.5 197.5,143.5" fill="#0f131a" />
    <polygon points="203.5,144.5 209.5,141.5 209.5,143.5 203.5,146.5" fill="#0b0d12" />
    <polygon points="203.5,138.5 209.5,141.5 203.5,144.5 197.5,141.5" fill="#161b22" />
  </g>
  <g class="col-group c-7" style="--pulse-color: #161b22;">
    <polygon points="191.0,148.0 197.0,151.0 197.0,153.0 191.0,150.0" fill="#0f131a" />
    <polygon points="197.0,151.0 203.0,148.0 203.0,150.0 197.0,153.0" fill="#0b0d12" />
    <polygon points="197.0,145.0 203.0,148.0 197.0,151.0 191.0,148.0" fill="#161b22" />
  </g>
  <g class="col-group c-7" style="--pulse-color: #161b22;">
    <polygon points="184.5,154.5 190.5,157.5 190.5,159.5 184.5,156.5" fill="#0f131a" />
    <polygon points="190.5,157.5 196.5,154.5 196.5,156.5 190.5,159.5" fill="#0b0d12" />
    <polygon points="190.5,151.5 196.5,154.5 190.5,157.5 184.5,154.5" fill="#161b22" />
  </g>
  <!-- Column 8 -->
  <g class="col-group c-8" style="--pulse-color: #161b22;">
    <polygon points="236.5,118.75 242.5,121.75 242.5,123.75 236.5,120.75" fill="#0f131a" />
    <polygon points="242.5,121.75 248.5,118.75 248.5,120.75 242.5,123.75" fill="#0b0d12" />
    <polygon points="242.5,115.75 248.5,118.75 242.5,121.75 236.5,118.75" fill="#161b22" />
  </g>
  <g class="col-group c-8" style="--pulse-color: #006d32;">
    <polygon points="230.0,115.25 236.0,118.25 236.0,130.25 230.0,127.25" fill="#004d23" />
    <polygon points="236.0,118.25 242.0,115.25 242.0,127.25 236.0,130.25" fill="#003317" />
    <polygon points="236.0,112.25 242.0,115.25 236.0,118.25 230.0,115.25" fill="#006d32" />
  </g>
  <g class="col-group c-8" style="--pulse-color: #161b22;">
    <polygon points="223.5,131.75 229.5,134.75 229.5,136.75 223.5,133.75" fill="#0f131a" />
    <polygon points="229.5,134.75 235.5,131.75 235.5,133.75 229.5,136.75" fill="#0b0d12" />
    <polygon points="229.5,128.75 235.5,131.75 229.5,134.75 223.5,131.75" fill="#161b22" />
  </g>
  <g class="col-group c-8" style="--pulse-color: #161b22;">
    <polygon points="217.0,138.25 223.0,141.25 223.0,143.25 217.0,140.25" fill="#0f131a" />
    <polygon points="223.0,141.25 229.0,138.25 229.0,140.25 223.0,143.25" fill="#0b0d12" />
    <polygon points="223.0,135.25 229.0,138.25 223.0,141.25 217.0,138.25" fill="#161b22" />
  </g>
  <g class="col-group c-8" style="--pulse-color: #161b22;">
    <polygon points="210.5,144.75 216.5,147.75 216.5,149.75 210.5,146.75" fill="#0f131a" />
    <polygon points="216.5,147.75 222.5,144.75 222.5,146.75 216.5,149.75" fill="#0b0d12" />
    <polygon points="216.5,141.75 222.5,144.75 216.5,147.75 210.5,144.75" fill="#161b22" />
  </g>
  <g class="col-group c-8" style="--pulse-color: #161b22;">
    <polygon points="204.0,151.25 210.0,154.25 210.0,156.25 204.0,153.25" fill="#0f131a" />
    <polygon points="210.0,154.25 216.0,151.25 216.0,153.25 210.0,156.25" fill="#0b0d12" />
    <polygon points="210.0,148.25 216.0,151.25 210.0,154.25 204.0,151.25" fill="#161b22" />
  </g>
  <g class="col-group c-8" style="--pulse-color: #161b22;">
    <polygon points="197.5,157.75 203.5,160.75 203.5,162.75 197.5,159.75" fill="#0f131a" />
    <polygon points="203.5,160.75 209.5,157.75 209.5,159.75 203.5,162.75" fill="#0b0d12" />
    <polygon points="203.5,154.75 209.5,157.75 203.5,160.75 197.5,157.75" fill="#161b22" />
  </g>
  <!-- Column 9 -->
  <g class="col-group c-9" style="--pulse-color: #161b22;">
    <polygon points="249.5,122.0 255.5,125.0 255.5,127.0 249.5,124.0" fill="#0f131a" />
    <polygon points="255.5,125.0 261.5,122.0 261.5,124.0 255.5,127.0" fill="#0b0d12" />
    <polygon points="255.5,119.0 261.5,122.0 255.5,125.0 249.5,122.0" fill="#161b22" />
  </g>
  <g class="col-group c-9" style="--pulse-color: #161b22;">
    <polygon points="243.0,128.5 249.0,131.5 249.0,133.5 243.0,130.5" fill="#0f131a" />
    <polygon points="249.0,131.5 255.0,128.5 255.0,130.5 249.0,133.5" fill="#0b0d12" />
    <polygon points="249.0,125.5 255.0,128.5 249.0,131.5 243.0,128.5" fill="#161b22" />
  </g>
  <g class="col-group c-9" style="--pulse-color: #161b22;">
    <polygon points="236.5,135.0 242.5,138.0 242.5,140.0 236.5,137.0" fill="#0f131a" />
    <polygon points="242.5,138.0 248.5,135.0 248.5,137.0 242.5,140.0" fill="#0b0d12" />
    <polygon points="242.5,132.0 248.5,135.0 242.5,138.0 236.5,135.0" fill="#161b22" />
  </g>
  <g class="col-group c-9" style="--pulse-color: #161b22;">
    <polygon points="230.0,141.5 236.0,144.5 236.0,146.5 230.0,143.5" fill="#0f131a" />
    <polygon points="236.0,144.5 242.0,141.5 242.0,143.5 236.0,146.5" fill="#0b0d12" />
    <polygon points="236.0,138.5 242.0,141.5 236.0,144.5 230.0,141.5" fill="#161b22" />
  </g>
  <g class="col-group c-9" style="--pulse-color: #161b22;">
    <polygon points="223.5,148.0 229.5,151.0 229.5,153.0 223.5,150.0" fill="#0f131a" />
    <polygon points="229.5,151.0 235.5,148.0 235.5,150.0 229.5,153.0" fill="#0b0d12" />
    <polygon points="229.5,145.0 235.5,148.0 229.5,151.0 223.5,148.0" fill="#161b22" />
  </g>
  <g class="col-group c-9" style="--pulse-color: #161b22;">
    <polygon points="217.0,154.5 223.0,157.5 223.0,159.5 217.0,156.5" fill="#0f131a" />
    <polygon points="223.0,157.5 229.0,154.5 229.0,156.5 223.0,159.5" fill="#0b0d12" />
    <polygon points="223.0,151.5 229.0,154.5 223.0,157.5 217.0,154.5" fill="#161b22" />
  </g>
  <g class="col-group c-9" style="--pulse-color: #161b22;">
    <polygon points="210.5,161.0 216.5,164.0 216.5,166.0 210.5,163.0" fill="#0f131a" />
    <polygon points="216.5,164.0 222.5,161.0 222.5,163.0 216.5,166.0" fill="#0b0d12" />
    <polygon points="216.5,158.0 222.5,161.0 216.5,164.0 210.5,161.0" fill="#161b22" />
  </g>
  <!-- Column 10 -->
  <g class="col-group c-10" style="--pulse-color: #161b22;">
    <polygon points="262.5,125.25 268.5,128.25 268.5,130.25 262.5,127.25" fill="#0f131a" />
    <polygon points="268.5,128.25 274.5,125.25 274.5,127.25 268.5,130.25" fill="#0b0d12" />
    <polygon points="268.5,122.25 274.5,125.25 268.5,128.25 262.5,125.25" fill="#161b22" />
  </g>
  <g class="col-group c-10" style="--pulse-color: #161b22;">
    <polygon points="256.0,131.75 262.0,134.75 262.0,136.75 256.0,133.75" fill="#0f131a" />
    <polygon points="262.0,134.75 268.0,131.75 268.0,133.75 262.0,136.75" fill="#0b0d12" />
    <polygon points="262.0,128.75 268.0,131.75 262.0,134.75 256.0,131.75" fill="#161b22" />
  </g>
  <g class="col-group c-10" style="--pulse-color: #161b22;">
    <polygon points="249.5,138.25 255.5,141.25 255.5,143.25 249.5,140.25" fill="#0f131a" />
    <polygon points="255.5,141.25 261.5,138.25 261.5,140.25 255.5,143.25" fill="#0b0d12" />
    <polygon points="255.5,135.25 261.5,138.25 255.5,141.25 249.5,138.25" fill="#161b22" />
  </g>
  <g class="col-group c-10" style="--pulse-color: #161b22;">
    <polygon points="243.0,144.75 249.0,147.75 249.0,149.75 243.0,146.75" fill="#0f131a" />
    <polygon points="249.0,147.75 255.0,144.75 255.0,146.75 249.0,149.75" fill="#0b0d12" />
    <polygon points="249.0,141.75 255.0,144.75 249.0,147.75 243.0,144.75" fill="#161b22" />
  </g>
  <g class="col-group c-10" style="--pulse-color: #161b22;">
    <polygon points="236.5,151.25 242.5,154.25 242.5,156.25 236.5,153.25" fill="#0f131a" />
    <polygon points="242.5,154.25 248.5,151.25 248.5,153.25 242.5,156.25" fill="#0b0d12" />
    <polygon points="242.5,148.25 248.5,151.25 242.5,154.25 236.5,151.25" fill="#161b22" />
  </g>
  <g class="col-group c-10" style="--pulse-color: #161b22;">
    <polygon points="230.0,157.75 236.0,160.75 236.0,162.75 230.0,159.75" fill="#0f131a" />
    <polygon points="236.0,160.75 242.0,157.75 242.0,159.75 236.0,162.75" fill="#0b0d12" />
    <polygon points="236.0,154.75 242.0,157.75 236.0,160.75 230.0,157.75" fill="#161b22" />
  </g>
  <g class="col-group c-10" style="--pulse-color: #161b22;">
    <polygon points="223.5,164.25 229.5,167.25 229.5,169.25 223.5,166.25" fill="#0f131a" />
    <polygon points="229.5,167.25 235.5,164.25 235.5,166.25 229.5,169.25" fill="#0b0d12" />
    <polygon points="229.5,161.25 235.5,164.25 229.5,167.25 223.5,164.25" fill="#161b22" />
  </g>
  <!-- Column 11 -->
  <g class="col-group c-11" style="--pulse-color: #161b22;">
    <polygon points="275.5,128.5 281.5,131.5 281.5,133.5 275.5,130.5" fill="#0f131a" />
    <polygon points="281.5,131.5 287.5,128.5 287.5,130.5 281.5,133.5" fill="#0b0d12" />
    <polygon points="281.5,125.5 287.5,128.5 281.5,131.5 275.5,128.5" fill="#161b22" />
  </g>
  <g class="col-group c-11" style="--pulse-color: #161b22;">
    <polygon points="269.0,135.0 275.0,138.0 275.0,140.0 269.0,137.0" fill="#0f131a" />
    <polygon points="275.0,138.0 281.0,135.0 281.0,137.0 275.0,140.0" fill="#0b0d12" />
    <polygon points="275.0,132.0 281.0,135.0 275.0,138.0 269.0,135.0" fill="#161b22" />
  </g>
  <g class="col-group c-11" style="--pulse-color: #161b22;">
    <polygon points="262.5,141.5 268.5,144.5 268.5,146.5 262.5,143.5" fill="#0f131a" />
    <polygon points="268.5,144.5 274.5,141.5 274.5,143.5 268.5,146.5" fill="#0b0d12" />
    <polygon points="268.5,138.5 274.5,141.5 268.5,144.5 262.5,141.5" fill="#161b22" />
  </g>
  <g class="col-group c-11" style="--pulse-color: #161b22;">
    <polygon points="256.0,148.0 262.0,151.0 262.0,153.0 256.0,150.0" fill="#0f131a" />
    <polygon points="262.0,151.0 268.0,148.0 268.0,150.0 262.0,153.0" fill="#0b0d12" />
    <polygon points="262.0,145.0 268.0,148.0 262.0,151.0 256.0,148.0" fill="#161b22" />
  </g>
  <g class="col-group c-11" style="--pulse-color: #161b22;">
    <polygon points="249.5,154.5 255.5,157.5 255.5,159.5 249.5,156.5" fill="#0f131a" />
    <polygon points="255.5,157.5 261.5,154.5 261.5,156.5 255.5,159.5" fill="#0b0d12" />
    <polygon points="255.5,151.5 261.5,154.5 255.5,157.5 249.5,154.5" fill="#161b22" />
  </g>
  <g class="col-group c-11" style="--pulse-color: #161b22;">
    <polygon points="243.0,161.0 249.0,164.0 249.0,166.0 243.0,163.0" fill="#0f131a" />
    <polygon points="249.0,164.0 255.0,161.0 255.0,163.0 249.0,166.0" fill="#0b0d12" />
    <polygon points="249.0,158.0 255.0,161.0 249.0,164.0 243.0,161.0" fill="#161b22" />
  </g>
  <g class="col-group c-11" style="--pulse-color: #161b22;">
    <polygon points="236.5,167.5 242.5,170.5 242.5,172.5 236.5,169.5" fill="#0f131a" />
    <polygon points="242.5,170.5 248.5,167.5 248.5,169.5 242.5,172.5" fill="#0b0d12" />
    <polygon points="242.5,164.5 248.5,167.5 242.5,170.5 236.5,167.5" fill="#161b22" />
  </g>
  <!-- Column 12 -->
  <g class="col-group c-12" style="--pulse-color: #161b22;">
    <polygon points="288.5,131.75 294.5,134.75 294.5,136.75 288.5,133.75" fill="#0f131a" />
    <polygon points="294.5,134.75 300.5,131.75 300.5,133.75 294.5,136.75" fill="#0b0d12" />
    <polygon points="294.5,128.75 300.5,131.75 294.5,134.75 288.5,131.75" fill="#161b22" />
  </g>
  <g class="col-group c-12" style="--pulse-color: #161b22;">
    <polygon points="282.0,138.25 288.0,141.25 288.0,143.25 282.0,140.25" fill="#0f131a" />
    <polygon points="288.0,141.25 294.0,138.25 294.0,140.25 288.0,143.25" fill="#0b0d12" />
    <polygon points="288.0,135.25 294.0,138.25 288.0,141.25 282.0,138.25" fill="#161b22" />
  </g>
  <g class="col-group c-12" style="--pulse-color: #39d353;">
    <polygon points="275.5,122.75 281.5,125.75 281.5,149.75 275.5,146.75" fill="#28943a" />
    <polygon points="281.5,125.75 287.5,122.75 287.5,146.75 281.5,149.75" fill="#1c6829" />
    <polygon points="281.5,119.75 287.5,122.75 281.5,125.75 275.5,122.75" fill="#39d353" />
  </g>
  <g class="col-group c-12" style="--pulse-color: #0e4429;">
    <polygon points="269.0,147.25 275.0,150.25 275.0,156.25 269.0,153.25" fill="#0a301d" />
    <polygon points="275.0,150.25 281.0,147.25 281.0,153.25 275.0,156.25" fill="#072214" />
    <polygon points="275.0,144.25 281.0,147.25 275.0,150.25 269.0,147.25" fill="#0e4429" />
  </g>
  <g class="col-group c-12" style="--pulse-color: #161b22;">
    <polygon points="262.5,157.75 268.5,160.75 268.5,162.75 262.5,159.75" fill="#0f131a" />
    <polygon points="268.5,160.75 274.5,157.75 274.5,159.75 268.5,162.75" fill="#0b0d12" />
    <polygon points="268.5,154.75 274.5,157.75 268.5,160.75 262.5,157.75" fill="#161b22" />
  </g>
  <g class="col-group c-12" style="--pulse-color: #161b22;">
    <polygon points="256.0,164.25 262.0,167.25 262.0,169.25 256.0,166.25" fill="#0f131a" />
    <polygon points="262.0,167.25 268.0,164.25 268.0,166.25 262.0,169.25" fill="#0b0d12" />
    <polygon points="262.0,161.25 268.0,164.25 262.0,167.25 256.0,164.25" fill="#161b22" />
  </g>
  <g class="col-group c-12" style="--pulse-color: #161b22;">
    <polygon points="249.5,170.75 255.5,173.75 255.5,175.75 249.5,172.75" fill="#0f131a" />
    <polygon points="255.5,173.75 261.5,170.75 261.5,172.75 255.5,175.75" fill="#0b0d12" />
    <polygon points="255.5,167.75 261.5,170.75 255.5,173.75 249.5,170.75" fill="#161b22" />
  </g>
  <!-- Column 13 -->
  <g class="col-group c-13" style="--pulse-color: #161b22;">
    <polygon points="301.5,135.0 307.5,138.0 307.5,140.0 301.5,137.0" fill="#0f131a" />
    <polygon points="307.5,138.0 313.5,135.0 313.5,137.0 307.5,140.0" fill="#0b0d12" />
    <polygon points="307.5,132.0 313.5,135.0 307.5,138.0 301.5,135.0" fill="#161b22" />
  </g>
  <g class="col-group c-13" style="--pulse-color: #161b22;">
    <polygon points="295.0,141.5 301.0,144.5 301.0,146.5 295.0,143.5" fill="#0f131a" />
    <polygon points="301.0,144.5 307.0,141.5 307.0,143.5 301.0,146.5" fill="#0b0d12" />
    <polygon points="301.0,138.5 307.0,141.5 301.0,144.5 295.0,141.5" fill="#161b22" />
  </g>
  <g class="col-group c-13" style="--pulse-color: #161b22;">
    <polygon points="288.5,148.0 294.5,151.0 294.5,153.0 288.5,150.0" fill="#0f131a" />
    <polygon points="294.5,151.0 300.5,148.0 300.5,150.0 294.5,153.0" fill="#0b0d12" />
    <polygon points="294.5,145.0 300.5,148.0 294.5,151.0 288.5,148.0" fill="#161b22" />
  </g>
  <g class="col-group c-13" style="--pulse-color: #161b22;">
    <polygon points="282.0,154.5 288.0,157.5 288.0,159.5 282.0,156.5" fill="#0f131a" />
    <polygon points="288.0,157.5 294.0,154.5 294.0,156.5 288.0,159.5" fill="#0b0d12" />
    <polygon points="288.0,151.5 294.0,154.5 288.0,157.5 282.0,154.5" fill="#161b22" />
  </g>
  <g class="col-group c-13" style="--pulse-color: #161b22;">
    <polygon points="275.5,161.0 281.5,164.0 281.5,166.0 275.5,163.0" fill="#0f131a" />
    <polygon points="281.5,164.0 287.5,161.0 287.5,163.0 281.5,166.0" fill="#0b0d12" />
    <polygon points="281.5,158.0 287.5,161.0 281.5,164.0 275.5,161.0" fill="#161b22" />
  </g>
  <g class="col-group c-13" style="--pulse-color: #161b22;">
    <polygon points="269.0,167.5 275.0,170.5 275.0,172.5 269.0,169.5" fill="#0f131a" />
    <polygon points="275.0,170.5 281.0,167.5 281.0,169.5 275.0,172.5" fill="#0b0d12" />
    <polygon points="275.0,164.5 281.0,167.5 275.0,170.5 269.0,167.5" fill="#161b22" />
  </g>
  <g class="col-group c-13" style="--pulse-color: #161b22;">
    <polygon points="262.5,174.0 268.5,177.0 268.5,179.0 262.5,176.0" fill="#0f131a" />
    <polygon points="268.5,177.0 274.5,174.0 274.5,176.0 268.5,179.0" fill="#0b0d12" />
    <polygon points="268.5,171.0 274.5,174.0 268.5,177.0 262.5,174.0" fill="#161b22" />
  </g>
  <!-- Column 14 -->
  <g class="col-group c-14" style="--pulse-color: #161b22;">
    <polygon points="314.5,138.25 320.5,141.25 320.5,143.25 314.5,140.25" fill="#0f131a" />
    <polygon points="320.5,141.25 326.5,138.25 326.5,140.25 320.5,143.25" fill="#0b0d12" />
    <polygon points="320.5,135.25 326.5,138.25 320.5,141.25 314.5,138.25" fill="#161b22" />
  </g>
  <g class="col-group c-14" style="--pulse-color: #161b22;">
    <polygon points="308.0,144.75 314.0,147.75 314.0,149.75 308.0,146.75" fill="#0f131a" />
    <polygon points="314.0,147.75 320.0,144.75 320.0,146.75 314.0,149.75" fill="#0b0d12" />
    <polygon points="314.0,141.75 320.0,144.75 314.0,147.75 308.0,144.75" fill="#161b22" />
  </g>
  <g class="col-group c-14" style="--pulse-color: #161b22;">
    <polygon points="301.5,151.25 307.5,154.25 307.5,156.25 301.5,153.25" fill="#0f131a" />
    <polygon points="307.5,154.25 313.5,151.25 313.5,153.25 307.5,156.25" fill="#0b0d12" />
    <polygon points="307.5,148.25 313.5,151.25 307.5,154.25 301.5,151.25" fill="#161b22" />
  </g>
  <g class="col-group c-14" style="--pulse-color: #161b22;">
    <polygon points="295.0,157.75 301.0,160.75 301.0,162.75 295.0,159.75" fill="#0f131a" />
    <polygon points="301.0,160.75 307.0,157.75 307.0,159.75 301.0,162.75" fill="#0b0d12" />
    <polygon points="301.0,154.75 307.0,157.75 301.0,160.75 295.0,157.75" fill="#161b22" />
  </g>
  <g class="col-group c-14" style="--pulse-color: #161b22;">
    <polygon points="288.5,164.25 294.5,167.25 294.5,169.25 288.5,166.25" fill="#0f131a" />
    <polygon points="294.5,167.25 300.5,164.25 300.5,166.25 294.5,169.25" fill="#0b0d12" />
    <polygon points="294.5,161.25 300.5,164.25 294.5,167.25 288.5,164.25" fill="#161b22" />
  </g>
  <g class="col-group c-14" style="--pulse-color: #0e4429;">
    <polygon points="282.0,166.75 288.0,169.75 288.0,175.75 282.0,172.75" fill="#0a301d" />
    <polygon points="288.0,169.75 294.0,166.75 294.0,172.75 288.0,175.75" fill="#072214" />
    <polygon points="288.0,163.75 294.0,166.75 288.0,169.75 282.0,166.75" fill="#0e4429" />
  </g>
  <g class="col-group c-14" style="--pulse-color: #161b22;">
    <polygon points="275.5,177.25 281.5,180.25 281.5,182.25 275.5,179.25" fill="#0f131a" />
    <polygon points="281.5,180.25 287.5,177.25 287.5,179.25 281.5,182.25" fill="#0b0d12" />
    <polygon points="281.5,174.25 287.5,177.25 281.5,180.25 275.5,177.25" fill="#161b22" />
  </g>

  <!-- Section Divider Line -->
  <line x1="30" y1="220" x2="390" y2="220" stroke="rgba(255,255,255,0.06)" stroke-width="1.2" stroke-dasharray="2 4" />

  <!-- Timeline Section -->
  <text x="35" y="243" class="tech-header">CONTRIBUTION ACTIVITY</text>
  <text x="35" y="253" class="tech-sub">LOGGED COMMITS &amp; REPOSITORIES // ACTIVE TIMELINE</text>
  <!-- Timeline summary block -->
  <g transform="translate(35, 267)">
    <circle cx="8" cy="8" r="4" fill="#10b981" filter="drop-shadow(0 0 3px #10b981)" />
    <text x="20" y="11" class="timeline-title">Created 24 commits in 3 repositories</text>
  </g>
  <!-- Repo 1 Progress -->
  <text x="45" y="298" class="timeline-repo">Harsha-code-per</text>
  <rect x="220" y="290" width="100" height="6" rx="3" fill="#161622" />
  <rect x="220" y="290" width="45" height="6" rx="3" fill="#10b981" />
  <text x="328" y="298" class="timeline-count" text-anchor="start">11 commits</text>
  <!-- Repo 2 Progress -->
  <text x="45" y="322" class="timeline-repo">Harshavardhan.portfolio</text>
  <rect x="220" y="314" width="100" height="6" rx="3" fill="#161622" />
  <rect x="220" y="314" width="29" height="6" rx="3" fill="#6366f1" />
  <text x="328" y="322" class="timeline-count" text-anchor="start">7 commits</text>
  <!-- Repo 3 Progress -->
  <text x="45" y="346" class="timeline-repo">Aura</text>
  <rect x="220" y="338" width="100" height="6" rx="3" fill="#161622" />
  <rect x="220" y="338" width="25" height="6" rx="3" fill="#00f2fe" />
  <text x="328" y="346" class="timeline-count" text-anchor="start">6 commits</text>
  <!-- Inner divider -->
  <line x1="30" y1="368" x2="390" y2="368" stroke="rgba(255,255,255,0.06)" stroke-width="1.2" stroke-dasharray="2 4" />
  <!-- Commit List Header -->
  <text x="35" y="392" class="timeline-title">// LATEST LOGGED MISSIONS</text>
  <!-- Commit 1 -->
  <g transform="translate(35, 408)">
    <circle cx="5" cy="5" r="2.5" fill="#52525b" />
    <text x="15" y="8" class="commit-sha">[fc00fe6]</text>
    <text x="65" y="8" class="commit-msg">Feat: Changes in profile designing</text>
  </g>
  <!-- Commit 2 -->
  <g transform="translate(35, 432)">
    <circle cx="5" cy="5" r="2.5" fill="#52525b" />
    <text x="15" y="8" class="commit-sha">[2889aa0]</text>
    <text x="65" y="8" class="commit-msg">Feat:New Designs</text>
  </g>
  <!-- Commit 3 -->
  <g transform="translate(35, 456)">
    <circle cx="5" cy="5" r="2.5" fill="#52525b" />
    <text x="15" y="8" class="commit-sha">[ad38ebf]</text>
    <text x="65" y="8" class="commit-msg">add gamification</text>
  </g>

  <!-- Technical border decorations -->
  <path d="M 8 8 L 18 8 M 8 8 L 8 18" class="blueprint-border" />
  <path d="M 412 8 L 402 8 M 412 8 L 412 18" class="blueprint-border" />
  <path d="M 8 502 L 18 502 M 8 502 L 8 492" class="blueprint-border" />
  <path d="M 412 502 L 402 502 M 412 502 L 412 492" class="blueprint-border" />
</svg>