<svg xmlns="http://www.w3.org/2000/svg" width="800" height="260" viewBox="0 0 800 260" fill="none">
  <style>
  <![CDATA[
    .grid { stroke: rgba(255, 255, 255, 0.015); stroke-width: 0.8; }
    
    .panel-bg {
      fill: #050508;
      stroke: rgba(255, 255, 255, 0.06);
      stroke-width: 1.2;
    }
    
    .title {
      font-family: ui-monospace, SFMono-Regular, Menlo, Monaco, Consolas, monospace;
      font-size: 10px;
      font-weight: bold;
      fill: #94a3b8;
      letter-spacing: 1px;
    }

    .icon-box {
      fill: #0c0c12;
      stroke: rgba(255, 255, 255, 0.04);
      stroke-width: 1;
      rx: 6px;
    }
  ]]>
  </style>

  <rect width="800" height="260" fill="#050508" stroke="rgba(255, 255, 255, 0.08)" rx="6" />
  
  <line x1="0" y1="125" x2="800" y2="125" class="grid" stroke-dasharray="2 4" />

  <!-- ROW 1 (Centered Panels - Motion, Cloud) -->
  <!-- Column 4: MOTION & IMMERSIVE UI -->
  <g class="panel-group" id="pg-motion">
    <rect x="130" y="10" width="260" height="105" class="panel-bg" rx="4" />
    <text x="145" y="32" class="title">MOTION &amp; IMMERSIVE UI</text>
    
    <!-- Technology Icons -->
    <rect x="145" y="48" width="32" height="32" class="icon-box" />
    <svg viewBox="0 0 24 24" x="149" y="52" width="24" height="24"><path d="M.38 0a.268.268 0 0 0-.256.332l2.894 11.716a.268.268 0 0 0 .01.04l2.89 11.708a.268.268 0 0 0 .447.128L23.802 7.15a.268.268 0 0 0-.112-.45l-5.784-1.667a.268.268 0 0 0-.123-.035L6.38 1.715a.268.268 0 0 0-.144-.04L.456.01A.268.268 0 0 0 .38 0zm.374.654L5.71 2.08 1.99 5.664zM6.61 2.34l4.864 1.4-3.65 3.515zm-.522.12l1.217 4.926-4.877-1.4zm6.28 1.538l4.878 1.404-3.662 3.53zm-.52.13l1.208 4.9-4.853-1.392zm6.3 1.534l4.947 1.424-3.715 3.574zm-.524.12l1.215 4.926-4.876-1.398zm-15.432.696l4.964 1.424-3.726 3.586zM8.047 8.15l4.877 1.4-3.66 3.527zm-.518.137l1.236 5.017-4.963-1.432zm6.274 1.535l4.965 1.425-3.73 3.586zm-.52.127l1.235 5.012-4.958-1.43zm-9.63 2.438l4.873 1.406-3.656 3.523zm5.854 1.687l4.863 1.403-3.648 3.51zm-.54.04l1.214 4.927-4.875-1.4zm-3.896 4.02l5.037 1.442-3.782 3.638z" fill="#FFFFFF" /></svg>
    
    <rect x="200" y="48" width="32" height="32" class="icon-box" />
    <svg viewBox="0 0 24 24" x="204" y="52" width="24" height="24"><path d="M3.489 10.164c-.565.548-.885 1.172-.885 1.835 0 2.167 3.415 3.921 7.631 3.921 2.339 0 4.437-.484 5.837-1.335-1.533 1.426-4.265 2.43-7.385 2.43C3.89 17.015 0 14.769 0 11.999s3.89-5.014 8.689-5.014c3.131.002 5.872 1.009 7.398 2.444-1.399-.856-3.504-1.351-5.852-1.351-2.506 0-4.73.621-6.121 1.579l.785 3.395.971-3.481h.737l.971 3.481.805-3.481h.805L7.953 14.11h-.717l-.991-3.566L5.24 14.11h-.714zm19.839 3.48h-.162v.424h-.142v-.424h-.164v-.122h.468zm.064-.122h.209l.095.364.096-.364H24v.546h-.133v-.415h-.002l-.113.415h-.109l-.115-.415h-.003v.415h-.133zm-5.699.515c-.2.084-.399.126-.601.126-.319 0-.608-.055-.863-.166q-.3825-.1665-.645-.459c-.175-.195-.311-.424-.404-.688-.093-.263-.14-.547-.14-.851 0-.313.047-.601.14-.869.093-.269.226-.502.402-.699.175-.2.39-.355.645-.468s.541-.171.863-.171c.215 0 .421.034.621.098.199.064.381.16.543.284s.295.279.399.463.169.395.193.632h-.874c-.055-.233-.159-.408-.315-.525-.155-.118-.343-.176-.567-.176-.207 0-.382.04-.526.12s-.262.187-.35.322a1.41 1.41 0 0 0-.196.459c-.039.171-.062.348-.062.532 0 .175.02.346.062.512.04.167.107.315.196.448.088.133.206.24.35.32s.319.119.526.119c.303 0 .539-.077.705-.23s.262-.375.29-.668h-.922v-.689h1.75v2.255h-.584l-.093-.472c-.162.21-.344.357-.543.441m2.708-4.14v3.395h2.033v.774h-2.949V9.897zm-9.204 1.585c.109.151.191.337.251.557.053.21.08.452.08.716v.047H9.372c.011.41.164.876.807.876.45 0 .703-.344.719-.537l.002-.042h.592l-.007.051c-.008.075-.051.222-.135.377-.049.086-.104.166-.166.239a1.3 1.3 0 0 1-.248.218c-.071.046-.158.1-.287.139-.148.047-.326.069-.543.069-.415 0-.763-.151-1.007-.434a1.43 1.43 0 0 1-.266-.482c-.06-.182-.091-.386-.091-.601 0-.485.12-.896.348-1.186.125-.158.278-.28.457-.362.191-.086.41-.131.654-.131.218 0 .413.043.581.127.165.082.304.202.415.359m-1.064.047c-.402 0-.741.357-.765.785h1.543c-.046-.528-.302-.785-.778-.785m4.373.388c.058.182.086.381.084.588 0 .19-.022.385-.064.563-.049.206-.122.39-.22.545-.11.178-.252.318-.419.415-.186.109-.408.164-.654.164-.228 0-.426-.057-.585-.173a.89.89 0 0 1-.198-.193v.282h-.561V9.983h.59v1.393c.093-.111.202-.2.324-.262.146-.078.313-.118.497-.12.199 0 .383.04.547.118.158.075.295.184.408.324.109.135.193.297.251.481m-.53.67c0-.2-.013-.459-.111-.672-.12-.26-.335-.384-.654-.384-.3 0-.506.135-.628.417-.084.195-.126.452-.126.785 0 .696.412.942.765.942.244 0 .435-.102.565-.303.125-.191.189-.462.189-.785" fill="#990000" /></svg>
    
    <rect x="255" y="48" width="32" height="32" class="icon-box" />
    <svg viewBox="0 0 24 24" x="259" y="52" width="24" height="24"><path d="M9.83,7.59C10.647,7.595 11.267,7.828 11.672,8.282C12.055,8.713 12.239,9.336 12.219,10.132L12.205,10.193C12.197,10.211 12.185,10.229 12.17,10.243C12.14,10.272 12.099,10.288 12.057,10.288L10.398,10.288C10.29,10.288 10.199,10.2 10.199,10.093C10.199,9.669 10.071,9.435 9.809,9.383L9.689,9.372C9.347,9.372 9.125,9.583 9.119,9.951C9.112,10.361 9.344,10.734 10.004,11.374C10.872,12.19 11.221,12.913 11.204,13.867C11.177,15.411 10.127,16.41 8.531,16.41C7.716,16.41 7.093,16.191 6.678,15.761C6.258,15.324 6.066,14.683 6.106,13.855C6.108,13.813 6.125,13.772 6.155,13.743C6.185,13.714 6.226,13.698 6.267,13.698L7.983,13.698C8.007,13.699 8.03,13.705 8.052,13.715C8.073,13.726 8.092,13.741 8.107,13.76C8.12,13.775 8.129,13.793 8.135,13.813C8.14,13.832 8.141,13.853 8.137,13.873C8.118,14.171 8.171,14.394 8.288,14.518C8.363,14.598 8.469,14.639 8.599,14.639C8.916,14.639 9.102,14.414 9.109,14.024C9.115,13.687 9.007,13.39 8.427,12.792C7.676,12.058 7.003,11.3 7.024,10.108C7.037,9.416 7.311,8.784 7.798,8.327C8.312,7.845 9.014,7.59 9.83,7.59ZM4.047,7.618C4.794,7.612 5.381,7.842 5.789,8.303C6.221,8.79 6.44,9.524 6.441,10.485C6.44,10.527 6.422,10.567 6.392,10.597C6.362,10.626 6.322,10.643 6.28,10.643L4.479,10.643C4.448,10.642 4.417,10.629 4.395,10.607C4.373,10.584 4.361,10.553 4.36,10.522C4.346,9.899 4.172,9.576 3.828,9.538L3.757,9.534C3.067,9.535 2.66,10.472 2.444,10.992C2.142,11.719 1.988,12.507 2.018,13.293C2.033,13.659 2.092,14.173 2.438,14.386C2.746,14.575 3.185,14.45 3.451,14.24C3.716,14.031 3.93,13.669 4.02,13.339C4.033,13.293 4.033,13.258 4.021,13.241C4.015,13.233 4.003,13.229 3.989,13.226L3.485,13.222C3.461,13.222 3.436,13.216 3.414,13.206C3.392,13.196 3.372,13.181 3.356,13.162C3.344,13.148 3.335,13.13 3.331,13.112C3.327,13.093 3.327,13.074 3.331,13.056L3.647,11.682C3.663,11.611 3.726,11.558 3.804,11.548L3.804,11.545L6.839,11.545C6.846,11.545 6.854,11.545 6.86,11.546C6.939,11.556 6.995,11.63 6.994,11.71L6.994,11.714L6.678,13.085C6.661,13.163 6.583,13.22 6.494,13.22L6.113,13.22C6.1,13.22 6.086,13.225 6.075,13.233C6.064,13.241 6.056,13.253 6.052,13.266C5.7,14.46 5.223,15.282 4.594,15.775C4.058,16.195 3.399,16.391 2.517,16.391C1.725,16.391 1.191,16.136 0.738,15.633C0.14,14.967 -0.107,13.879 0.043,12.566C0.313,10.103 1.589,7.618 4.047,7.618ZM21.016,7.75C23.026,7.75 24.03,8.662 23.999,10.461C23.962,12.569 22.678,14.119 20.745,14.477C20.47,14.527 20.191,14.547 19.912,14.545L18.978,14.541C18.963,14.541 18.948,14.547 18.937,14.558C18.926,14.568 18.92,14.583 18.92,14.598C18.92,14.608 18.922,14.618 18.928,14.627C18.933,14.636 18.941,14.643 18.95,14.648L19.744,15.062C19.809,15.096 19.835,15.153 19.82,15.226C19.815,15.249 19.618,16.139 19.613,16.159C19.596,16.237 19.533,16.282 19.442,16.282L17.739,16.282C17.715,16.282 17.69,16.277 17.668,16.267C17.646,16.257 17.626,16.241 17.61,16.223C17.598,16.208 17.589,16.191 17.585,16.173C17.58,16.155 17.581,16.135 17.585,16.116L19.481,7.875C19.5,7.789 19.581,7.751 19.653,7.751L21.016,7.75ZM17.273,7.762C17.292,7.77 17.31,7.781 17.324,7.795C17.338,7.81 17.351,7.828 17.358,7.847C17.366,7.866 17.369,7.886 17.369,7.906L17.358,16.119C17.361,16.138 17.36,16.158 17.355,16.177C17.35,16.196 17.34,16.213 17.328,16.228C17.313,16.245 17.295,16.259 17.274,16.268C17.254,16.277 17.232,16.282 17.21,16.281L15.397,16.281C15.377,16.282 15.356,16.277 15.337,16.27C15.318,16.262 15.3,16.25 15.286,16.236C15.272,16.221 15.26,16.204 15.253,16.185C15.245,16.166 15.241,16.146 15.241,16.125L15.28,15.328C15.282,15.241 15.28,15.217 15.229,15.211L15.161,15.209L13.447,15.209C13.323,15.209 13.314,15.22 13.27,15.334L12.914,16.191C12.882,16.252 12.818,16.281 12.722,16.281L10.927,16.281C10.818,16.281 10.74,16.173 10.781,16.072L14.499,7.873C14.524,7.824 14.562,7.75 14.648,7.75L17.214,7.75C17.234,7.75 17.254,7.754 17.273,7.762ZM15.5,9.985C15.492,9.953 15.466,9.956 15.445,9.998C15.43,10.028 15.416,10.06 15.405,10.091L14.121,13.274C14.114,13.294 14.109,13.31 14.105,13.322C14.104,13.328 14.103,13.335 14.104,13.341C14.105,13.347 14.108,13.353 14.111,13.358C14.115,13.363 14.12,13.367 14.126,13.37C14.131,13.373 14.137,13.376 14.143,13.376L15.215,13.39C15.334,13.38 15.34,13.374 15.352,13.253C15.354,13.21 15.506,10.022 15.5,9.985ZM20.112,9.582C20.097,9.582 20.083,9.588 20.072,9.599C20.061,9.609 20.055,9.624 20.054,9.639C20.054,9.649 20.057,9.659 20.062,9.668C20.068,9.677 20.075,9.685 20.084,9.69C20.097,9.697 20.869,10.104 20.926,10.135C20.968,10.158 20.969,10.198 20.955,10.267C20.948,10.298 20.415,12.642 20.416,12.644C20.419,12.647 20.435,12.655 20.515,12.655L20.551,12.655C21.446,12.619 21.934,11.561 21.952,10.534C21.961,9.979 21.772,9.638 21.429,9.588L21.358,9.582L20.112,9.582Z" fill="#88CE02" /></svg>
    
    <rect x="310" y="48" width="32" height="32" class="icon-box" />
    <svg viewBox="0 0 24 24" x="314" y="52" width="24" height="24"><path d="M4 0h16v8h-8zM4 8h8l8 8H4zM4 16h8v8z" fill="#FFFFFF" /></svg>
  </g>

  <!-- Column 5: CLOUD, SYSTEMS & INFRA -->
  <g class="panel-group" id="pg-systems">
    <rect x="410" y="10" width="260" height="105" class="panel-bg" rx="4" />
    <text x="425" y="32" class="title">CLOUD, SYSTEMS &amp; INFRA</text>
    
    <!-- Technology Icons (6 Slots) -->
    <rect x="425" y="48" width="32" height="32" class="icon-box" />
    <svg viewBox="0 0 1024 1024" x="429" y="52" width="24" height="24"><path d="M400.3 479.1c0 6.3.7 11.4 1.9 15.1 1.4 3.8 3.1 7.9 5.5 12.3.9 1.3 1.2 2.7 1.2 3.9 0 1.7-1 3.4-3.2 5.1l-10.7 7.1c-1.3.9-2.8 1.5-4.4 1.5-1.7 0-3.4-.9-5.1-2.4-2.3-2.5-4.3-5.1-6.1-8-1.9-3.3-3.7-6.6-5.3-10-13.3 15.7-30 23.5-50.1 23.5-14.3 0-25.7-4.1-34-12.2-8.3-8.2-12.6-19.1-12.6-32.7 0-14.5 5.1-26.2 15.5-35.1 10.4-8.9 24.2-13.3 41.7-13.3 5.8 0 11.8.5 18 1.4 6.3.9 12.8 2.2 19.6 3.8v-12.4c0-12.9-2.7-22-8-27.2-5.4-5.3-14.6-7.8-27.7-7.8-6 0-12.1.7-18.4 2.2s-12.4 3.4-18.4 5.8c-1.9.9-3.9 1.6-6 2.2-.9.3-1.8.4-2.7.5-2.4 0-3.6-1.7-3.6-5.3v-8.3c0-2.7.3-4.8 1.2-6 1.3-1.5 2.9-2.8 4.8-3.6 6-3.1 13.1-5.6 21.4-7.7 8.7-2.2 17.6-3.3 26.6-3.2 20.3 0 35.1 4.6 44.6 13.8 9.4 9.2 14.1 23.1 14.1 41.9v55.2l.2-.1zM331.2 505c5.6 0 11.4-1 17.5-3.1 6.1-2 11.6-5.8 16.2-10.9 2.7-3.2 4.8-6.8 5.8-10.9 1-4.1 1.7-9 1.7-14.8v-7.1c-5.2-1.3-10.4-2.2-15.7-2.9-5.3-.7-10.7-1-16-1-11.4 0-19.8 2.2-25.4 6.8-5.6 4.6-8.3 11.1-8.3 19.6 0 8 2 14 6.3 18 4.1 4.3 10 6.3 17.9 6.3zm136.7 18.4c-3.1 0-5.1-.5-6.5-1.7-1.4-1-2.6-3.4-3.6-6.6l-40-131.6c-.8-2.2-1.3-4.5-1.5-6.8 0-2.7 1.4-4.3 4.1-4.3h16.7c3.2 0 5.4.5 6.6 1.7 1.4 1 2.4 3.4 3.4 6.7l28.6 112.7 26.6-112.7c.9-3.4 1.9-5.6 3.2-6.7 2-1.3 4.4-1.9 6.8-1.7H526c3.2 0 5.5.5 6.8 1.7 1.3 1 2.6 3.4 3.2 6.7l26.9 114.1 29.5-114.1c1-3.4 2.2-5.6 3.4-6.7 2-1.3 4.3-1.9 6.6-1.7h15.9c2.7 0 4.3 1.4 4.3 4.3 0 .9-.2 1.7-.4 2.7-.3 1.5-.7 2.9-1.2 4.3l-41 131.6c-1 3.4-2.2 5.6-3.6 6.6-1.9 1.2-4.2 1.8-6.5 1.7h-14.7c-3.2 0-5.4-.5-6.8-1.7-1.3-1.2-2.5-3.4-3.2-6.8l-26.4-109.8L492.6 515c-.9 3.4-1.9 5.6-3.2 6.8-1.4 1.2-3.8 1.7-6.8 1.7l-14.7-.1zm218.8 4.6c-8.9 0-17.7-1-26.2-3.1-8.5-2-15.1-4.3-19.6-6.8-2.7-1.5-4.6-3.2-5.3-4.8-.7-1.5-1-3.1-1-4.8v-8.7c0-3.6 1.4-5.3 3.9-5.3 1 0 2 .2 3.1.5 1 .3 2.6 1 4.3 1.7 5.8 2.6 12.1 4.6 18.7 6 6.8 1.4 13.4 2 20.3 2 10.7 0 19.1-1.9 24.9-5.6 5.6-3.4 9-9.6 8.9-16.2.1-4.4-1.5-8.7-4.6-11.9-3.1-3.2-8.9-6.1-17.2-8.9l-24.7-7.7c-12.4-3.9-21.6-9.7-27.2-17.3-5.5-7.1-8.5-15.8-8.5-24.7 0-7.1 1.6-13.4 4.6-18.9 3.1-5.4 7.1-10.2 12.3-14 5.1-3.9 10.9-6.8 17.7-8.9 6.8-2 14-2.9 21.5-2.9 3.7 0 7.7.2 11.4.7 3.9.5 7.5 1.2 11.1 1.9 3.4.9 6.7 1.7 9.7 2.7 3.1 1 5.5 2 7.2 3.1 2 1 3.8 2.5 5.1 4.3 1.1 1.7 1.6 3.6 1.5 5.6v8c0 3.6-1.4 5.5-3.9 5.5-2.3-.3-4.5-1-6.5-2-10.3-4.5-21.4-6.8-32.7-6.6-9.7 0-17.4 1.5-22.7 4.8-5.3 3.2-8 8.2-8 15.1 0 4.8 1.7 8.9 5.1 12.1 3.4 3.2 9.7 6.5 18.7 9.4l24.2 7.6c12.2 3.9 21.1 9.4 26.4 16.4 5.3 7 7.8 15 7.8 23.8 0 7.3-1.5 14-4.4 19.8-3.1 5.8-7.2 10.9-12.4 15-5.3 4.3-11.6 7.3-18.9 9.5-7.9 2.4-15.9 3.6-24.6 3.6zm32.2 82.7c-56 41.4-137.4 63.3-207.4 63.3-98.1 0-186.5-36.3-253.2-96.6-5.3-4.8-.5-11.2 5.8-7.5 72.2 41.9 161.3 67.3 253.4 67.3 62.2 0 130.4-12.9 193.3-39.5 9.3-4.2 17.3 6.2 8.1 13zm23.3-26.5c-7.2-9.2-47.4-4.4-65.6-2.2-5.4.7-6.3-4.1-1.3-7.7 32-22.5 84.6-16 90.8-8.5 6.1 7.7-1.7 60.3-31.7 85.5-4.6 3.9-9 1.9-7-3.2 6.8-16.9 22-54.9 14.8-63.9z" fill="#FF9900" /></svg>
    
    <rect x="463" y="48" width="32" height="32" class="icon-box" />
    <svg viewBox="0 0 128 128" x="467" y="52" width="24" height="24"><defs><linearGradient id="azure-azure-original-a" x1="60.919" y1="9.602" x2="18.667" y2="134.423" gradientUnits="userSpaceOnUse"><stop stop-color="#114A8B"/><stop offset="1" stop-color="#0669BC"/></linearGradient><linearGradient id="azure-azure-original-b" x1="74.117" y1="67.772" x2="64.344" y2="71.076" gradientUnits="userSpaceOnUse"><stop stop-opacity=".3"/><stop offset=".071" stop-opacity=".2"/><stop offset=".321" stop-opacity=".1"/><stop offset=".623" stop-opacity=".05"/><stop offset="1" stop-opacity="0"/></linearGradient><linearGradient id="azure-azure-original-c" x1="68.742" y1="5.961" x2="115.122" y2="129.525" gradientUnits="userSpaceOnUse"><stop stop-color="#3CCBF4"/><stop offset="1" stop-color="#2892DF"/></linearGradient></defs><path d="M46.09.002h40.685L44.541 125.137a6.485 6.485 0 01-6.146 4.413H6.733a6.482 6.482 0 01-5.262-2.699 6.474 6.474 0 01-.876-5.848L39.944 4.414A6.488 6.488 0 0146.09 0z" fill="url(#azure-azure-original-a)" transform="translate(.587 4.468) scale(.91904)"/><path d="M97.28 81.607H37.987a2.743 2.743 0 00-1.874 4.751l38.1 35.562a5.991 5.991 0 004.087 1.61h33.574z" fill="#0078d4"/><path d="M46.09.002A6.434 6.434 0 0039.93 4.5L.644 120.897a6.469 6.469 0 006.106 8.653h32.48a6.942 6.942 0 005.328-4.531l7.834-23.089 27.985 26.101a6.618 6.618 0 004.165 1.519h36.396l-15.963-45.616-46.533.011L86.922.002z" fill="url(#azure-azure-original-b)" transform="translate(.587 4.468) scale(.91904)"/><path d="M98.055 4.408A6.476 6.476 0 0091.917.002H46.575a6.478 6.478 0 016.137 4.406l39.35 116.594a6.476 6.476 0 01-6.137 8.55h45.344a6.48 6.48 0 006.136-8.55z" fill="url(#azure-azure-original-c)" transform="translate(.587 4.468) scale(.91904)"/></svg>
    
    <rect x="501" y="48" width="32" height="32" class="icon-box" />
    <svg viewBox="0 0 128 128" x="505" y="52" width="24" height="24"><path fill="#ea4535" d="M80.6 40.3h.4l-.2-.2 14-14v-.3c-11.8-10.4-28.1-14-43.2-9.5C36.5 20.8 24.9 32.8 20.7 48c.2-.1.5-.2.8-.2 5.2-3.4 11.4-5.4 17.9-5.4 2.2 0 4.3.2 6.4.6.1-.1.2-.1.3-.1 9-9.9 24.2-11.1 34.6-2.6h-.1z"/><path fill="#557ebf" d="M108.1 47.8c-2.3-8.5-7.1-16.2-13.8-22.1L80 39.9c6 4.9 9.5 12.3 9.3 20v2.5c16.9 0 16.9 25.2 0 25.2H63.9v20h-.1l.1.2h25.4c14.6.1 27.5-9.3 31.8-23.1 4.3-13.8-1-28.8-13-36.9z"/><path fill="#36a852" d="M39 107.9h26.3V87.7H39c-1.9 0-3.7-.4-5.4-1.1l-15.2 14.6v.2c6 4.3 13.2 6.6 20.7 6.6z"/><path fill="#f9bc15" d="M40.2 41.9c-14.9.1-28.1 9.3-32.9 22.8-4.8 13.6 0 28.5 11.8 37.3l15.6-14.9c-8.6-3.7-10.6-14.5-4-20.8 6.6-6.4 17.8-4.4 21.7 3.8L68 55.2C61.4 46.9 51.1 42 40.2 42.1z"/></svg>
    
    <rect x="539" y="48" width="32" height="32" class="icon-box" />
    <svg viewBox="0 0 24 24" x="543" y="52" width="24" height="24"><path d="M13.983 11.078h2.119a.186.186 0 00.186-.185V9.006a.186.186 0 00-.186-.186h-2.119a.185.185 0 00-.185.185v1.888c0 .102.083.185.185.185m-2.954-5.43h2.118a.186.186 0 00.186-.186V3.574a.186.186 0 00-.186-.185h-2.118a.185.185 0 00-.185.185v1.888c0 .102.082.185.185.185m0 2.716h2.118a.187.187 0 00.186-.186V6.29a.186.186 0 00-.186-.185h-2.118a.185.185 0 00-.185.185v1.887c0 .102.082.185.185.186m-2.93 0h2.12a.186.186 0 00.184-.186V6.29a.185.185 0 00-.185-.185H8.1a.185.185 0 00-.185.185v1.887c0 .102.083.185.185.186m-2.964 0h2.119a.186.186 0 00.185-.186V6.29a.185.185 0 00-.185-.185H5.136a.186.186 0 00-.186.185v1.887c0 .102.084.185.186.186m5.893 2.715h2.118a.186.186 0 00.186-.185V9.006a.186.186 0 00-.186-.186h-2.118a.185.185 0 00-.185.185v1.888c0 .102.082.185.185.185m-2.93 0h2.12a.185.185 0 00.184-.185V9.006a.185.185 0 00-.184-.186h-2.12a.185.185 0 00-.184.185v1.888c0 .102.083.185.185.185m-2.964 0h2.119a.185.185 0 00.185-.185V9.006a.185.185 0 00-.184-.186h-2.12a.186.186 0 00-.186.186v1.887c0 .102.084.185.186.185m-2.92 0h2.12a.185.185 0 00.184-.185V9.006a.185.185 0 00-.184-.186h-2.12a.185.185 0 00-.184.185v1.888c0 .102.082.185.185.185M23.763 9.89c-.065-.051-.672-.51-1.954-.51-.338.001-.676.03-1.01.087-.248-1.7-1.653-2.53-1.716-2.566l-.344-.199-.226.327c-.284.438-.49.922-.612 1.43-.23.97-.09 1.882.403 2.661-.595.332-1.55.413-1.744.42H.751a.751.751 0 00-.75.748 11.376 11.376 0 00.692 4.062c.545 1.428 1.355 2.48 2.41 3.124 1.18.723 3.1 1.137 5.275 1.137.983.003 1.963-.086 2.93-.266a12.248 12.248 0 003.823-1.389c.98-.567 1.86-1.288 2.61-2.136 1.252-1.418 1.998-2.997 2.553-4.4h.221c1.372 0 2.215-.549 2.68-1.009.309-.293.55-.65.707-1.046l.098-.288Z" fill="#2496ED" /></svg>
    
    <rect x="577" y="48" width="32" height="32" class="icon-box" />
    <svg viewBox="0 0 24 24" x="581" y="52" width="24" height="24"><path d="M23.5594 14.7228a.5269.5269 0 0 0-.0563-.1191c-.139-.2632-.4768-.3418-1.0074-.2321-1.6533.3411-2.2935.1312-2.5256-.0191 1.342-2.0482 2.445-4.522 3.0411-6.8297.2714-1.0507.7982-3.5237.1222-4.7316a1.5641 1.5641 0 0 0-.1509-.235C21.6931.9086 19.8007.0248 17.5099.0005c-1.4947-.0158-2.7705.3461-3.1161.4794a9.449 9.449 0 0 0-.5159-.0816 8.044 8.044 0 0 0-1.3114-.1278c-1.1822-.0184-2.2038.2642-3.0498.8406-.8573-.3211-4.7888-1.645-7.2219.0788C.9359 2.1526.3086 3.8733.4302 6.3043c.0409.818.5069 3.334 1.2423 5.7436.4598 1.5065.9387 2.7019 1.4334 3.582.553.9942 1.1259 1.5933 1.7143 1.7895.4474.1491 1.1327.1441 1.8581-.7279.8012-.9635 1.5903-1.8258 1.9446-2.2069.4351.2355.9064.3625 1.39.3772a.0569.0569 0 0 0 .0004.0041 11.0312 11.0312 0 0 0-.2472.3054c-.3389.4302-.4094.5197-1.5002.7443-.3102.064-1.1344.2339-1.1464.8115-.0025.1224.0329.2309.0919.3268.2269.4231.9216.6097 1.015.6331 1.3345.3335 2.5044.092 3.3714-.6787-.017 2.231.0775 4.4174.3454 5.0874.2212.5529.7618 1.9045 2.4692 1.9043.2505 0 .5263-.0291.8296-.0941 1.7819-.3821 2.5557-1.1696 2.855-2.9059.1503-.8707.4016-2.8753.5388-4.1012.0169-.0703.0357-.1207.057-.1362.0007-.0005.0697-.0471.4272.0307a.3673.3673 0 0 0 .0443.0068l.2539.0223.0149.001c.8468.0384 1.9114-.1426 2.5312-.4308.6438-.2988 1.8057-1.0323 1.5951-1.6698zM2.371 11.8765c-.7435-2.4358-1.1779-4.8851-1.2123-5.5719-.1086-2.1714.4171-3.6829 1.5623-4.4927 1.8367-1.2986 4.8398-.5408 6.108-.13-.0032.0032-.0066.0061-.0098.0094-2.0238 2.044-1.9758 5.536-1.9708 5.7495-.0002.0823.0066.1989.0162.3593.0348.5873.0996 1.6804-.0735 2.9184-.1609 1.1504.1937 2.2764.9728 3.0892.0806.0841.1648.1631.2518.2374-.3468.3714-1.1004 1.1926-1.9025 2.1576-.5677.6825-.9597.5517-1.0886.5087-.3919-.1307-.813-.5871-1.2381-1.3223-.4796-.839-.9635-2.0317-1.4155-3.5126zm6.0072 5.0871c-.1711-.0428-.3271-.1132-.4322-.1772.0889-.0394.2374-.0902.4833-.1409 1.2833-.2641 1.4815-.4506 1.9143-1.0002.0992-.126.2116-.2687.3673-.4426a.3549.3549 0 0 0 .0737-.1298c.1708-.1513.2724-.1099.4369-.0417.156.0646.3078.26.3695.4752.0291.1016.0619.2945-.0452.4444-.9043 1.2658-2.2216 1.2494-3.1676 1.0128zm2.094-3.988-.0525.141c-.133.3566-.2567.6881-.3334 1.003-.6674-.0021-1.3168-.2872-1.8105-.8024-.6279-.6551-.9131-1.5664-.7825-2.5004.1828-1.3079.1153-2.4468.079-3.0586-.005-.0857-.0095-.1607-.0122-.2199.2957-.2621 1.6659-.9962 2.6429-.7724.4459.1022.7176.4057.8305.928.5846 2.7038.0774 3.8307-.3302 4.7363-.084.1866-.1633.3629-.2311.5454zm7.3637 4.5725c-.0169.1768-.0358.376-.0618.5959l-.146.4383a.3547.3547 0 0 0-.0182.1077c-.0059.4747-.054.6489-.115.8693-.0634.2292-.1353.4891-.1794 1.0575-.11 1.4143-.8782 2.2267-2.4172 2.5565-1.5155.3251-1.7843-.4968-2.0212-1.2217a6.5824 6.5824 0 0 0-.0769-.2266c-.2154-.5858-.1911-1.4119-.1574-2.5551.0165-.5612-.0249-1.9013-.3302-2.6462.0044-.2932.0106-.5909.019-.8918a.3529.3529 0 0 0-.0153-.1126 1.4927 1.4927 0 0 0-.0439-.208c-.1226-.4283-.4213-.7866-.7797-.9351-.1424-.059-.4038-.1672-.7178-.0869.067-.276.1831-.5875.309-.9249l.0529-.142c.0595-.16.134-.3257.213-.5012.4265-.9476 1.0106-2.2453.3766-5.1772-.2374-1.0981-1.0304-1.6343-2.2324-1.5098-.7207.0746-1.3799.3654-1.7088.5321a5.6716 5.6716 0 0 0-.1958.1041c.0918-1.1064.4386-3.1741 1.7357-4.4823a4.0306 4.0306 0 0 1 .3033-.276.3532.3532 0 0 0 .1447-.0644c.7524-.5706 1.6945-.8506 2.802-.8325.4091.0067.8017.0339 1.1742.081 1.939.3544 3.2439 1.4468 4.0359 2.3827.8143.9623 1.2552 1.9315 1.4312 2.4543-1.3232-.1346-2.2234.1268-2.6797.779-.9926 1.4189.543 4.1729 1.2811 5.4964.1353.2426.2522.4522.2889.5413.2403.5825.5515.9713.7787 1.2552.0696.087.1372.1714.1885.245-.4008.1155-1.1208.3825-1.0552 1.717-.0123.1563-.0423.4469-.0834.8148-.0461.2077-.0702.4603-.0994.7662zm.8905-1.6211c-.0405-.8316.2691-.9185.5967-1.0105a2.8566 2.8566 0 0 0 .135-.0406 1.202 1.202 0 0 0 .1342.103c.5703.3765 1.5823.4213 3.0068.1344-.2016.1769-.5189.3994-.9533.6011-.4098.1903-1.0957.333-1.7473.3636-.7197.0336-1.0859-.0807-1.1721-.151zm.5695-9.2712c-.0059.3508-.0542.6692-.1054 1.0017-.055.3576-.112.7274-.1264 1.1762-.0142.4368.0404.8909.0932 1.3301.1066.887.216 1.8003-.2075 2.7014a3.5272 3.5272 0 0 1-.1876-.3856c-.0527-.1276-.1669-.3326-.3251-.6162-.6156-1.1041-2.0574-3.6896-1.3193-4.7446.3795-.5427 1.3408-.5661 2.1781-.463zm.2284 7.0137a12.3762 12.3762 0 0 0-.0853-.1074l-.0355-.0444c.7262-1.1995.5842-2.3862.4578-3.4385-.0519-.4318-.1009-.8396-.0885-1.2226.0129-.4061.0666-.7543.1185-1.0911.0639-.415.1288-.8443.1109-1.3505.0134-.0531.0188-.1158.0118-.1902-.0457-.4855-.5999-1.938-1.7294-3.253-.6076-.7073-1.4896-1.4972-2.6889-2.0395.5251-.1066 1.2328-.2035 2.0244-.1859 2.0515.0456 3.6746.8135 4.8242 2.2824a.908.908 0 0 1 .0667.1002c.7231 1.3556-.2762 6.2751-2.9867 10.5405zm-8.8166-6.1162c-.025.1794-.3089.4225-.6211.4225a.5821.5821 0 0 1-.0809-.0056c-.1873-.026-.3765-.144-.5059-.3156-.0458-.0605-.1203-.178-.1055-.2844.0055-.0401.0261-.0985.0925-.1488.1182-.0894.3518-.1226.6096-.0867.3163.0441.6426.1938.6113.4186zm7.9305-.4114c.0111.0792-.049.201-.1531.3102-.0683.0717-.212.1961-.4079.2232a.5456.5456 0 0 1-.075.0052c-.2935 0-.5414-.2344-.5607-.3717-.024-.1765.2641-.3106.5611-.352.297-.0414.6111.0088.6356.1851z" fill="#4169E1" /></svg>
    
    <rect x="615" y="48" width="32" height="32" class="icon-box" />
    <svg viewBox="0 0 24 24" x="619" y="52" width="24" height="24"><path d="M10.204 14.35l.007.01-.999 2.413a5.171 5.171 0 0 1-2.075-2.597l2.578-.437.004.005a.44.44 0 0 1 .484.606zm-.833-2.129a.44.44 0 0 0 .173-.756l.002-.011L7.585 9.7a5.143 5.143 0 0 0-.73 3.255l2.514-.725.002-.009zm1.145-1.98a.44.44 0 0 0 .699-.337l.01-.005.15-2.62a5.144 5.144 0 0 0-3.01 1.442l2.147 1.523.004-.002zm.76 2.75l.723.349.722-.347.18-.78-.5-.623h-.804l-.5.623.179.779zm1.5-3.095a.44.44 0 0 0 .7.336l.008.003 2.134-1.513a5.188 5.188 0 0 0-2.992-1.442l.148 2.615.002.001zm10.876 5.97l-5.773 7.181a1.6 1.6 0 0 1-1.248.594l-9.261.003a1.6 1.6 0 0 1-1.247-.596l-5.776-7.18a1.583 1.583 0 0 1-.307-1.34L2.1 5.573c.108-.47.425-.864.863-1.073L11.305.513a1.606 1.606 0 0 1 1.385 0l8.345 3.985c.438.209.755.604.863 1.073l2.062 8.955c.108.47-.005.963-.308 1.34zm-3.289-2.057c-.042-.01-.103-.026-.145-.034-.174-.033-.315-.025-.479-.038-.35-.037-.638-.067-.895-.148-.105-.04-.18-.165-.216-.216l-.201-.059a6.45 6.45 0 0 0-.105-2.332 6.465 6.465 0 0 0-.936-2.163c.052-.047.15-.133.177-.159.008-.09.001-.183.094-.282.197-.185.444-.338.743-.522.142-.084.273-.137.415-.242.032-.024.076-.062.11-.089.24-.191.295-.52.123-.736-.172-.216-.506-.236-.745-.045-.034.027-.08.062-.111.088-.134.116-.217.23-.33.35-.246.25-.45.458-.673.609-.097.056-.239.037-.303.033l-.19.135a6.545 6.545 0 0 0-4.146-2.003l-.012-.223c-.065-.062-.143-.115-.163-.25-.022-.268.015-.557.057-.905.023-.163.061-.298.068-.475.001-.04-.001-.099-.001-.142 0-.306-.224-.555-.5-.555-.275 0-.499.249-.499.555l.001.014c0 .041-.002.092 0 .128.006.177.044.312.067.475.042.348.078.637.056.906a.545.545 0 0 1-.162.258l-.012.211a6.424 6.424 0 0 0-4.166 2.003 8.373 8.373 0 0 1-.18-.128c-.09.012-.18.04-.297-.029-.223-.15-.427-.358-.673-.608-.113-.12-.195-.234-.329-.349-.03-.026-.077-.062-.111-.088a.594.594 0 0 0-.348-.132.481.481 0 0 0-.398.176c-.172.216-.117.546.123.737l.007.005.104.083c.142.105.272.159.414.242.299.185.546.338.743.522.076.082.09.226.1.288l.16.143a6.462 6.462 0 0 0-1.02 4.506l-.208.06c-.055.072-.133.184-.215.217-.257.081-.546.11-.895.147-.164.014-.305.006-.48.039-.037.007-.09.02-.133.03l-.004.002-.007.002c-.295.071-.484.342-.423.608.061.267.349.429.645.365l.007-.001.01-.003.129-.029c.17-.046.294-.113.448-.172.33-.118.604-.217.87-.256.112-.009.23.069.288.101l.217-.037a6.5 6.5 0 0 0 2.88 3.596l-.09.218c.033.084.069.199.044.282-.097.252-.263.517-.452.813-.091.136-.185.242-.268.399-.02.037-.045.095-.064.134-.128.275-.034.591.213.71.248.12.556-.007.69-.282v-.002c.02-.039.046-.09.062-.127.07-.162.094-.301.144-.458.132-.332.205-.68.387-.897.05-.06.13-.082.215-.105l.113-.205a6.453 6.453 0 0 0 4.609.012l.106.192c.086.028.18.042.256.155.136.232.229.507.342.84.05.156.074.295.145.457.016.037.043.09.062.129.133.276.442.402.69.282.247-.118.341-.435.213-.71-.02-.039-.045-.096-.065-.134-.083-.156-.177-.261-.268-.398-.19-.296-.346-.541-.443-.793-.04-.13.007-.21.038-.294-.018-.022-.059-.144-.083-.202a6.499 6.499 0 0 0 2.88-3.622c.064.01.176.03.213.038.075-.05.144-.114.28-.104.266.039.54.138.87.256.154.06.277.128.448.173.036.01.088.019.13.028l.009.003.007.001c.297.064.584-.098.645-.365.06-.266-.128-.537-.423-.608zM16.4 9.701l-1.95 1.746v.005a.44.44 0 0 0 .173.757l.003.01 2.526.728a5.199 5.199 0 0 0-.108-1.674A5.208 5.208 0 0 0 16.4 9.7zm-4.013 5.325a.437.437 0 0 0-.404-.232.44.44 0 0 0-.372.233h-.002l-1.268 2.292a5.164 5.164 0 0 0 3.326.003l-1.27-2.296h-.01zm1.888-1.293a.44.44 0 0 0-.27.036.44.44 0 0 0-.214.572l-.003.004 1.01 2.438a5.15 5.15 0 0 0 2.081-2.615l-2.6-.44-.004.005z" fill="#326CE5" /></svg>
  </g>


  <!-- ROW 2 (Inverted Row - AI, Backend, Frontend) -->
  <!-- Column 1: AI & DATA SCIENCE -->
  <g class="panel-group" id="pg-ai">
    <rect x="10" y="135" width="250" height="110" class="panel-bg" rx="4" />
    <text x="25" y="157" class="title">AI &amp; DATA SCIENCE</text>
    
    <!-- Technology Icons -->
    <rect x="25" y="177" width="32" height="32" class="icon-box" />
    <svg viewBox="0 0 128 128" x="29" y="181" width="24" height="24"><linearGradient id="py-python-original-a" gradientUnits="userSpaceOnUse" x1="70.252" y1="1237.476" x2="170.659" y2="1151.089" gradientTransform="matrix(.563 0 0 -.568 -29.215 707.817)"><stop offset="0" stop-color="#5A9FD4"/><stop offset="1" stop-color="#306998"/></linearGradient><linearGradient id="py-python-original-b" gradientUnits="userSpaceOnUse" x1="209.474" y1="1098.811" x2="173.62" y2="1149.537" gradientTransform="matrix(.563 0 0 -.568 -29.215 707.817)"><stop offset="0" stop-color="#FFD43B"/><stop offset="1" stop-color="#FFE873"/></linearGradient><path fill="url(#py-python-original-a)" d="M63.391 1.988c-4.222.02-8.252.379-11.8 1.007-10.45 1.846-12.346 5.71-12.346 12.837v9.411h24.693v3.137H29.977c-7.176 0-13.46 4.313-15.426 12.521-2.268 9.405-2.368 15.275 0 25.096 1.755 7.311 5.947 12.519 13.124 12.519h8.491V67.234c0-8.151 7.051-15.34 15.426-15.34h24.665c6.866 0 12.346-5.654 12.346-12.548V15.833c0-6.693-5.646-11.72-12.346-12.837-4.244-.706-8.645-1.027-12.866-1.008zM50.037 9.557c2.55 0 4.634 2.117 4.634 4.721 0 2.593-2.083 4.69-4.634 4.69-2.56 0-4.633-2.097-4.633-4.69-.001-2.604 2.073-4.721 4.633-4.721z" transform="translate(0 10.26)"/><path fill="url(#py-python-original-b)" d="M91.682 28.38v10.966c0 8.5-7.208 15.655-15.426 15.655H51.591c-6.756 0-12.346 5.783-12.346 12.549v23.515c0 6.691 5.818 10.628 12.346 12.547 7.816 2.297 15.312 2.713 24.665 0 6.216-1.801 12.346-5.423 12.346-12.547v-9.412H63.938v-3.138h37.012c7.176 0 9.852-5.005 12.348-12.519 2.578-7.735 2.467-15.174 0-25.096-1.774-7.145-5.161-12.521-12.348-12.521h-9.268zM77.809 87.927c2.561 0 4.634 2.097 4.634 4.692 0 2.602-2.074 4.719-4.634 4.719-2.55 0-4.633-2.117-4.633-4.719 0-2.595 2.083-4.692 4.633-4.692z" transform="translate(0 10.26)"/><radialGradient id="py-python-original-c" cx="1825.678" cy="444.45" r="26.743" gradientTransform="matrix(0 -.24 -1.055 0 532.979 557.576)" gradientUnits="userSpaceOnUse"><stop offset="0" stop-color="#B8B8B8" stop-opacity=".498"/><stop offset="1" stop-color="#7F7F7F" stop-opacity="0"/></radialGradient><path opacity=".444" fill="url(#py-python-original-c)" d="M97.309 119.597c0 3.543-14.816 6.416-33.091 6.416-18.276 0-33.092-2.873-33.092-6.416 0-3.544 14.815-6.417 33.092-6.417 18.275 0 33.091 2.872 33.091 6.417z"/></svg>
    
    <rect x="80" y="177" width="32" height="32" class="icon-box" />
    <svg viewBox="0 0 24 24" x="84" y="181" width="24" height="24"><path d="M12.005 0L4.952 7.053a9.865 9.865 0 000 14.022 9.866 9.866 0 0014.022 0c3.984-3.9 3.986-10.205.085-14.023l-1.744 1.743c2.904 2.905 2.904 7.634 0 10.538s-7.634 2.904-10.538 0-2.904-7.634 0-10.538l4.647-4.646.582-.665zm3.568 3.899a1.327 1.327 0 00-1.327 1.327 1.327 1.327 0 001.327 1.328A1.327 1.327 0 0016.9 5.226 1.327 1.327 0 0015.573 3.9z" fill="#EE4C2C" /></svg>
    
    <rect x="135" y="177" width="32" height="32" class="icon-box" />
    <svg viewBox="0 0 24 24" x="139" y="181" width="24" height="24"><path d="M11.146 0h3.924v18.166c-2.013.382-3.491.535-5.096.535-4.791 0-7.288-2.166-7.288-6.32 0-4.002 2.65-6.6 6.753-6.6.637 0 1.121.05 1.707.203zm0 9.143a3.894 3.894 0 00-1.325-.204c-1.988 0-3.134 1.223-3.134 3.365 0 2.09 1.096 3.236 3.109 3.236.433 0 .79-.025 1.35-.102V9.142zM21.314 6.06v9.098c0 3.134-.229 4.638-.917 5.937-.637 1.249-1.478 2.039-3.211 2.905l-3.644-1.733c1.733-.815 2.574-1.53 3.109-2.625.561-1.121.739-2.421.739-5.835V6.059h3.924zM17.39.021h3.924v4.026H17.39z" fill="#44B78B" /></svg>
    
    <rect x="190" y="177" width="32" height="32" class="icon-box" />
    <svg viewBox="0 0 24 24" x="194" y="181" width="24" height="24"><path d="m12 16.5 3.897-2.25v-4.5L12 7.5 8.103 9.75v4.5zM1.607 18 12 24l3.897-2.25v-4.5L12 19.5l-6.495-3.75v-7.5L12 4.5l6.495 3.75v15L22.393 21V6L12 0 1.607 6Z" fill="#FF2D55" /></svg>
  </g>

  <!-- Column 2: BACKEND & FLOW -->
  <g class="panel-group" id="pg-backend">
    <rect x="275" y="135" width="250" height="110" class="panel-bg" rx="4" />
    <text x="290" y="157" class="title">BACKEND &amp; DEV WORKFLOW</text>
    
    <!-- Technology Icons -->
    <rect x="290" y="177" width="32" height="32" class="icon-box" />
    <svg viewBox="0 0 24 24" x="294" y="181" width="24" height="24"><path d="M11.998,24c-0.321,0-0.641-0.084-0.922-0.247l-2.936-1.737c-0.438-0.245-0.224-0.332-0.08-0.383 c0.585-0.203,0.703-0.25,1.328-0.604c0.065-0.037,0.151-0.023,0.218,0.017l2.256,1.339c0.082,0.045,0.197,0.045,0.272,0l8.795-5.076 c0.082-0.047,0.134-0.141,0.134-0.238V6.921c0-0.099-0.053-0.192-0.137-0.242l-8.791-5.072c-0.081-0.047-0.189-0.047-0.271,0 L3.075,6.68C2.99,6.729,2.936,6.825,2.936,6.921v10.15c0,0.097,0.054,0.189,0.139,0.235l2.409,1.392 c1.307,0.654,2.108-0.116,2.108-0.89V7.787c0-0.142,0.114-0.253,0.256-0.253h1.115c0.139,0,0.255,0.112,0.255,0.253v10.021 c0,1.745-0.95,2.745-2.604,2.745c-0.508,0-0.909,0-2.026-0.551L2.28,18.675c-0.57-0.329-0.922-0.945-0.922-1.604V6.921 c0-0.659,0.353-1.275,0.922-1.603l8.795-5.082c0.557-0.315,1.296-0.315,1.848,0l8.794,5.082c0.57,0.329,0.924,0.944,0.924,1.603 v10.15c0,0.659-0.354,1.273-0.924,1.604l-8.794,5.078C12.643,23.916,12.324,24,11.998,24z M19.099,13.993 c0-1.9-1.284-2.406-3.987-2.763c-2.731-0.361-3.009-0.548-3.009-1.187c0-0.528,0.235-1.233,2.258-1.233 c1.807,0,2.473,0.389,2.747,1.607c0.024,0.115,0.129,0.199,0.247,0.199h1.141c0.071,0,0.138-0.031,0.186-0.081 c0.048-0.054,0.074-0.123,0.067-0.196c-0.177-2.098-1.571-3.076-4.388-3.076c-2.508,0-4.004,1.058-4.004,2.833 c0,1.925,1.488,2.457,3.895,2.695c2.88,0.282,3.103,0.703,3.103,1.269c0,0.983-0.789,1.402-2.642,1.402 c-2.327,0-2.839-0.584-3.011-1.742c-0.02-0.124-0.126-0.215-0.253-0.215h-1.137c-0.141,0-0.254,0.112-0.254,0.253 c0,1.482,0.806,3.248,4.655,3.248C17.501,17.007,19.099,15.91,19.099,13.993z" fill="#339933" /></svg>
    
    <rect x="345" y="177" width="32" height="32" class="icon-box" />
    <svg viewBox="0 0 24 24" x="349" y="181" width="24" height="24"><path d="M12 .0387C5.3729.0384.0003 5.3931 0 11.9988c-.001 6.6066 5.372 11.9628 12 11.9625 6.628.0003 12.001-5.3559 12-11.9625-.0003-6.6057-5.3729-11.9604-12-11.96m-.829 5.4153h7.55l-7.5805 5.3284h5.1828L5.279 18.5436q2.9466-6.5444 5.892-13.0896" fill="#009688" /></svg>
    
    <rect x="400" y="177" width="32" height="32" class="icon-box" />
    <svg viewBox="0 0 128 128" x="404" y="181" width="24" height="24"><path fill="#0074BD" d="M47.617 98.12s-4.767 2.774 3.397 3.71c9.892 1.13 14.947.968 25.845-1.092 0 0 2.871 1.795 6.873 3.351-24.439 10.47-55.308-.607-36.115-5.969zm-2.988-13.665s-5.348 3.959 2.823 4.805c10.567 1.091 18.91 1.18 33.354-1.6 0 0 1.993 2.025 5.132 3.131-29.542 8.64-62.446.68-41.309-6.336z"/><path fill="#EA2D2E" d="M69.802 61.271c6.025 6.935-1.58 13.17-1.58 13.17s15.289-7.891 8.269-17.777c-6.559-9.215-11.587-13.792 15.635-29.58 0 .001-42.731 10.67-22.324 34.187z"/><path fill="#0074BD" d="M102.123 108.229s3.529 2.91-3.888 5.159c-14.102 4.272-58.706 5.56-71.094.171-4.451-1.938 3.899-4.625 6.526-5.192 2.739-.593 4.303-.485 4.303-.485-4.953-3.487-32.013 6.85-13.743 9.815 49.821 8.076 90.817-3.637 77.896-9.468zM49.912 70.294s-22.686 5.389-8.033 7.348c6.188.828 18.518.638 30.011-.326 9.39-.789 18.813-2.474 18.813-2.474s-3.308 1.419-5.704 3.053c-23.042 6.061-67.544 3.238-54.731-2.958 10.832-5.239 19.644-4.643 19.644-4.643zm40.697 22.747c23.421-12.167 12.591-23.86 5.032-22.285-1.848.385-2.677.72-2.677.72s.688-1.079 2-1.543c14.953-5.255 26.451 15.503-4.823 23.725 0-.002.359-.327.468-.617z"/><path fill="#EA2D2E" d="M76.491 1.587S89.459 14.563 64.188 34.51c-20.266 16.006-4.621 25.13-.007 35.559-11.831-10.673-20.509-20.07-14.688-28.815C58.041 28.42 81.722 22.195 76.491 1.587z"/><path fill="#0074BD" d="M52.214 126.021c22.476 1.437 57-.8 57.817-11.436 0 0-1.571 4.032-18.577 7.231-19.186 3.612-42.854 3.191-56.887.874 0 .001 2.875 2.381 17.647 3.331z"/></svg>
    
    <rect x="455" y="177" width="32" height="32" class="icon-box" />
    <svg viewBox="0 0 24 24" x="459" y="181" width="24" height="24"><path d="M13.09 23.549a1.54 1.54 0 0 1-2.18 0L.451 13.089a1.54 1.54 0 0 1 0-2.179l7.191-7.19 2.733 2.733a1.85 1.85 0 0 0 .964 2.326v6.66a1.849 1.849 0 1 0 1.54 0V8.957l2.508 2.508a1.85 1.85 0 1 0 1.09-1.09l-2.634-2.634a1.85 1.85 0 0 0-2.378-2.377L8.73 2.63 10.91.451a1.54 1.54 0 0 1 2.179 0l10.459 10.46a1.54 1.54 0 0 1 0 2.179z" fill="#F05032" /></svg>
  </g>

  <!-- Column 3: FRONTEND ARCHITECTURE -->
  <g class="panel-group" id="pg-ui">
    <rect x="540" y="135" width="250" height="110" class="panel-bg" rx="4" />
    <text x="555" y="157" class="title">FRONTEND ARCHITECTURE</text>
    
    <!-- Technology Icons -->
    <rect x="555" y="177" width="32" height="32" class="icon-box" />
    <svg viewBox="0 0 24 24" x="559" y="181" width="24" height="24"><path d="M1.125 0C.502 0 0 .502 0 1.125v21.75C0 23.498.502 24 1.125 24h21.75c.623 0 1.125-.502 1.125-1.125V1.125C24 .502 23.498 0 22.875 0zm17.363 9.75c.612 0 1.154.037 1.627.111a6.38 6.38 0 0 1 1.306.34v2.458a3.95 3.95 0 0 0-.643-.361 5.093 5.093 0 0 0-.717-.26 5.453 5.453 0 0 0-1.426-.2c-.3 0-.573.028-.819.086a2.1 2.1 0 0 0-.623.242c-.17.104-.3.229-.393.374a.888.888 0 0 0-.14.49c0 .196.053.373.156.529.104.156.252.304.443.444s.423.276.696.41c.273.135.582.274.926.416.47.197.892.407 1.266.628.374.222.695.473.963.753.268.279.472.598.614.957.142.359.214.776.214 1.253 0 .657-.125 1.21-.373 1.656a3.033 3.033 0 0 1-1.012 1.085 4.38 4.38 0 0 1-1.487.596c-.566.12-1.163.18-1.79.18a9.916 9.916 0 0 1-1.84-.164 5.544 5.544 0 0 1-1.512-.493v-2.63a5.033 5.033 0 0 0 3.237 1.2c.333 0 .624-.03.872-.09.249-.06.456-.144.623-.25.166-.108.29-.234.373-.38a1.023 1.023 0 0 0-.074-1.089 2.12 2.12 0 0 0-.537-.5 5.597 5.597 0 0 0-.807-.444 27.72 27.72 0 0 0-1.007-.436c-.918-.383-1.602-.852-2.053-1.405-.45-.553-.676-1.222-.676-2.005 0-.614.123-1.141.369-1.582.246-.441.58-.804 1.004-1.089a4.494 4.494 0 0 1 1.47-.629 7.536 7.536 0 0 1 1.77-.201zm-15.113.188h9.563v2.166H9.506v9.646H6.789v-9.646H3.375z" fill="#3178C6" /></svg>
    
    <rect x="610" y="177" width="32" height="32" class="icon-box" />
    <svg viewBox="0 0 24 24" x="614" y="181" width="24" height="24"><path d="M18.665 21.978C16.758 23.255 14.465 24 12 24 5.377 24 0 18.623 0 12S5.377 0 12 0s12 5.377 12 12c0 3.583-1.574 6.801-4.067 9.001L9.219 7.2H7.2v9.596h1.615V9.251l9.85 12.727Zm-3.332-8.533 1.6 2.061V7.2h-1.6v6.245Z" fill="#FFFFFF" /></svg>
    
    <rect x="665" y="177" width="32" height="32" class="icon-box" />
    <svg viewBox="0 0 24 24" x="669" y="181" width="24" height="24"><path d="M14.23 12.004a2.236 2.236 0 0 1-2.235 2.236 2.236 2.236 0 0 1-2.236-2.236 2.236 2.236 0 0 1 2.235-2.236 2.236 2.236 0 0 1 2.236 2.236zm2.648-10.69c-1.346 0-3.107.96-4.888 2.622-1.78-1.653-3.542-2.602-4.887-2.602-.41 0-.783.093-1.106.278-1.375.793-1.683 3.264-.973 6.365C1.98 8.917 0 10.42 0 12.004c0 1.59 1.99 3.097 5.043 4.03-.704 3.113-.39 5.588.988 6.38.32.187.69.275 1.102.275 1.345 0 3.107-.96 4.888-2.624 1.78 1.654 3.542 2.603 4.887 2.603.41 0 .783-.09 1.106-.275 1.374-.792 1.683-3.263.973-6.365C22.02 15.096 24 13.59 24 12.004c0-1.59-1.99-3.097-5.043-4.032.704-3.11.39-5.587-.988-6.38-.318-.184-.688-.277-1.092-.278zm-.005 1.09v.006c.225 0 .406.044.558.127.666.382.955 1.835.73 3.704-.054.46-.142.945-.25 1.44-.96-.236-2.006-.417-3.107-.534-.66-.905-1.345-1.727-2.035-2.447 1.592-1.48 3.087-2.292 4.105-2.295zm-9.77.02c1.012 0 2.514.808 4.11 2.28-.686.72-1.37 1.537-2.02 2.442-1.107.117-2.154.298-3.113.538-.112-.49-.195-.964-.254-1.42-.23-1.868.054-3.32.714-3.707.19-.09.4-.127.563-.132zm4.882 3.05c.455.468.91.992 1.36 1.564-.44-.02-.89-.034-1.345-.034-.46 0-.915.01-1.36.034.44-.572.895-1.096 1.345-1.565zM12 8.1c.74 0 1.477.034 2.202.093.406.582.802 1.203 1.183 1.86.372.64.71 1.29 1.018 1.946-.308.655-.646 1.31-1.013 1.95-.38.66-.773 1.288-1.18 1.87-.728.063-1.466.098-2.21.098-.74 0-1.477-.035-2.202-.093-.406-.582-.802-1.204-1.183-1.86-.372-.64-.71-1.29-1.018-1.946.303-.657.646-1.313 1.013-1.954.38-.66.773-1.286 1.18-1.868.728-.064 1.466-.098 2.21-.098zm-3.635.254c-.24.377-.48.763-.704 1.16-.225.39-.435.782-.635 1.174-.265-.656-.49-1.31-.676-1.947.64-.15 1.315-.283 2.015-.386zm7.26 0c.695.103 1.365.23 2.006.387-.18.632-.405 1.282-.66 1.933-.2-.39-.41-.783-.64-1.174-.225-.392-.465-.774-.705-1.146zm3.063.675c.484.15.944.317 1.375.498 1.732.74 2.852 1.708 2.852 2.476-.005.768-1.125 1.74-2.857 2.475-.42.18-.88.342-1.355.493-.28-.958-.646-1.956-1.1-2.98.45-1.017.81-2.01 1.085-2.964zm-13.395.004c.278.96.645 1.957 1.1 2.98-.45 1.017-.812 2.01-1.086 2.964-.484-.15-.944-.318-1.37-.5-1.732-.737-2.852-1.706-2.852-2.474 0-.768 1.12-1.742 2.852-2.476.42-.18.88-.342 1.356-.494zm11.678 4.28c.265.657.49 1.312.676 1.948-.64.157-1.316.29-2.016.39.24-.375.48-.762.705-1.158.225-.39.435-.788.636-1.18zm-9.945.02c.2.392.41.783.64 1.175.23.39.465.772.705 1.143-.695-.102-1.365-.23-2.006-.386.18-.63.406-1.282.66-1.933zM17.92 16.32c.112.493.2.968.254 1.423.23 1.868-.054 3.32-.714 3.708-.147.09-.338.128-.563.128-1.012 0-2.514-.807-4.11-2.28.686-.72 1.37-1.536 2.02-2.44 1.107-.118 2.154-.3 3.113-.54zm-11.83.01c.96.234 2.006.415 3.107.532.66.905 1.345 1.727 2.035 2.446-1.595 1.483-3.092 2.295-4.11 2.295-.22-.005-.406-.05-.553-.132-.666-.38-.955-1.834-.73-3.703.054-.46.142-.944.25-1.438zm4.56.64c.44.02.89.034 1.345.034.46 0 .915-.01 1.36-.034-.44.572-.895 1.095-1.345 1.565-.455-.47-.91-.993-1.36-1.565z" fill="#61DAFB" /></svg>
    
    <rect x="720" y="177" width="32" height="32" class="icon-box" />
    <svg viewBox="0 0 24 24" x="724" y="181" width="24" height="24"><path d="M12.001,4.8c-3.2,0-5.2,1.6-6,4.8c1.2-1.6,2.6-2.2,4.2-1.8c0.913,0.228,1.565,0.89,2.288,1.624 C13.666,10.618,15.027,12,18.001,12c3.2,0,5.2-1.6,6-4.8c-1.2,1.6-2.6,2.2-4.2,1.8c-0.913-0.228-1.565-0.89-2.288-1.624 C16.337,6.182,14.976,4.8,12.001,4.8z M6.001,12c-3.2,0-5.2,1.6-6,4.8c1.2-1.6,2.6-2.2,4.2-1.8c0.913,0.228,1.565,0.89,2.288,1.624 c1.177,1.194,2.538,2.576,5.512,2.576c3.2,0,5.2-1.6,6-4.8c-1.2,1.6-2.6,2.2-4.2,1.8c-0.913-0.228-1.565-0.89-2.288-1.624 C10.337,13.382,8.976,12,6.001,12z" fill="#38BDF8" /></svg>
  </g>
</svg>
